<?xml version="1.0" encoding="UTF-8"?>
<svg width="83px" height="112px" viewBox="0 0 83 112" version="1.1" xmlns="http://www.w3.org/2000/svg" xmlns:xlink="http://www.w3.org/1999/xlink">
    <!-- Generator: Sketch 48 (47235) - http://www.bohemiancoding.com/sketch -->
    <title>contract</title>
    <desc>Created with Sketch.</desc>
    <defs></defs>
    <g id="Webpage-Official-1" stroke="none" stroke-width="1" fill="none" fill-rule="evenodd" transform="translate(-215.000000, -3736.000000)">
        <g id="contract" transform="translate(215.000000, 3736.000000)">
            <g id="Group-18-Copy" transform="translate(0.000000, 29.000000)">
                <polygon id="Fill-10" fill="#5573A5" transform="translate(2.733487, 42.817523) scale(-1, 1) translate(-2.733487, -42.817523) " points="0.601917614 21.5738329 0.622632576 66.4921897 4.86505682 63.8301773 4.86091383 19.1428571"></polygon>
                <polygon id="Fill-11" fill="#799DC9" transform="translate(20.266631, 10.796629) scale(-1, 1) translate(-20.266631, -10.796629) " points="5.17691989 0 0.54835464 1.7857339 35.6892164 21.5932574 39.9849077 19.1600909"></polygon>
                <polygon id="Fill-12" fill="#4E6B9C" transform="translate(22.424242, 34.098214) scale(-1, 1) translate(-22.424242, -34.098214) " points="4.84848485 46.6311964 40 66.4017857 40 21.5652321 4.84848485 1.79464286"></polygon>
                <polygon id="Fill-13" fill="#FFFFFF" transform="translate(22.727273, 21.834821) scale(-1, 1) translate(-22.727273, -21.834821) " points="33.9393939 29.3125 11.5151515 16.1854049 11.5151515 14.3571429 33.9393939 27.4851044"></polygon>
                <polygon id="Fill-14" fill="#FFFFFF" transform="translate(22.727273, 27.218750) scale(-1, 1) translate(-22.727273, -27.218750) " points="33.9393939 34.6964286 11.5151515 21.5693335 11.5151515 19.7410714 33.9393939 32.869033"></polygon>
                <polygon id="Fill-15" fill="#FFFFFF" transform="translate(22.727273, 32.004464) scale(-1, 1) translate(-22.727273, -32.004464) " points="33.9393939 39.4821429 11.5151515 26.3550478 11.5151515 24.5267857 33.9393939 37.6547472"></polygon>
                <polygon id="Fill-16" fill="#FFFFFF" transform="translate(22.727273, 37.388393) scale(-1, 1) translate(-22.727273, -37.388393) " points="33.9393939 44.8660714 11.5151515 31.7382158 11.5151515 29.9107143 33.9393939 43.0385699"></polygon>
                <polygon id="Fill-17" fill="#FFFFFF" transform="translate(22.727273, 42.174107) scale(-1, 1) translate(-22.727273, -42.174107) " points="33.9393939 49.6517857 11.5151515 36.5246907 11.5151515 34.6964286 33.9393939 47.8235236"></polygon>
                <polygon id="Fill-18" fill="#FFFFFF" transform="translate(22.727273, 46.959821) scale(-1, 1) translate(-22.727273, -46.959821) " points="33.9393939 54.4375 11.5151515 41.3104049 11.5151515 39.4821429 33.9393939 52.6092379"></polygon>
            </g>
            <g id="Group-18" transform="translate(17.000000, 0.000000)">
                <polygon id="Fill-10" fill="#5573A5" transform="translate(4.510254, 71.575562) scale(-1, 1) translate(-4.510254, -71.575562) " points="0.993164062 36.0637207 1.02734375 111.151123 8.02734375 106.701192 8.02050781 32"></polygon>
                <polygon id="Fill-11" fill="#799DC9" transform="translate(33.439941, 18.048096) scale(-1, 1) translate(-33.439941, -18.048096) " points="8.54191782 0 0.904785156 2.98510742 58.887207 36.0961914 65.9750977 32.0288086"></polygon>
                <polygon id="Fill-12" fill="#4E6B9C" transform="translate(37.000000, 57.000000) scale(-1, 1) translate(-37.000000, -57.000000) " points="8 77.9506567 66 111 66 36.0493433 8 3"></polygon>
                <polygon id="Fill-13" fill="#FFFFFF" transform="translate(37.500000, 36.500000) scale(-1, 1) translate(-37.500000, -36.500000) " points="56 49 19 27.0561993 19 24 56 45.9452491"></polygon>
                <polygon id="Fill-14" fill="#FFFFFF" transform="translate(37.500000, 45.500000) scale(-1, 1) translate(-37.500000, -45.500000) " points="56 58 19 36.0561993 19 33 56 54.9452491"></polygon>
                <polygon id="Fill-15" fill="#FFFFFF" transform="translate(37.500000, 53.500000) scale(-1, 1) translate(-37.500000, -53.500000) " points="56 66 19 44.0561993 19 41 56 62.9452491"></polygon>
                <polygon id="Fill-16" fill="#FFFFFF" transform="translate(37.500000, 62.500000) scale(-1, 1) translate(-37.500000, -62.500000) " points="56 75 19 53.0549279 19 50 56 71.9450721"></polygon>
                <polygon id="Fill-17" fill="#FFFFFF" transform="translate(37.500000, 70.500000) scale(-1, 1) translate(-37.500000, -70.500000) " points="56 83 19 61.0561993 19 58 56 79.9438007"></polygon>
                <polygon id="Fill-18" fill="#FFFFFF" transform="translate(37.500000, 78.500000) scale(-1, 1) translate(-37.500000, -78.500000) " points="56 91 19 69.0561993 19 66 56 87.9438007"></polygon>
            </g>
        </g>
    </g>
</svg>