<?xml version="1.0" encoding="UTF-8"?>
<svg width="58px" height="51px" viewBox="0 0 58 51" version="1.1" xmlns="http://www.w3.org/2000/svg" xmlns:xlink="http://www.w3.org/1999/xlink">
    <!-- Generator: Sketch 48 (47235) - http://www.bohemiancoding.com/sketch -->
    <title>features/crowdf</title>
    <desc>Created with Sketch.</desc>
    <defs></defs>
    <g id="Webpage-Official-1" stroke="none" stroke-width="1" fill="none" fill-rule="evenodd" transform="translate(-217.000000, -5638.000000)">
        <g id="Use-Cases-bg" transform="translate(-4.000000, 5172.000000)">
            <g id="features/crowdf" transform="translate(220.000000, 461.000000)">
                <g>
                    <rect id="features" fill="#4E6B9C" opacity="0" x="0" y="0" width="60" height="60" rx="3"></rect>
                    <g id="Group-15" transform="translate(1.000000, 5.000000)">
                        <path d="M42.858071,27.0480194 C42.858071,35.746772 35.8063935,42.7984495 27.1076409,42.7984495 C18.4088882,42.7984495 11.3568989,35.746772 11.3568989,27.0480194 C11.3568989,18.3492667 18.4088882,11.2972774 27.1076409,11.2972774 C35.8063935,11.2972774 42.858071,18.3492667 42.858071,27.0480194" id="Fill-1" fill="#4E6B9C"></path>
                        <polygon id="Fill-21" fill="#5573A5" points="9.99586344 42.2511602 9.18698172 41.3016441 14.6626806 36.6385688 15.4715624 37.5880849"></polygon>
                        <polygon id="Fill-23" fill="#5573A5" points="41.7749054 21.4701344 41.4259699 20.2727151 51.0006473 17.4818548 51.3495828 18.6792742"></polygon>
                        <polygon id="Fill-25" fill="#5573A5" points="37.0045925 14.7454086 35.9721301 14.0456667 39.1661839 9.3358172 40.1983344 10.0355591"></polygon>
                        <polygon id="Fill-27" fill="#5573A5" points="12.2998667 21.4098269 5.6937914 17.5447194 6.32368387 16.4679774 12.9297591 20.3330849"></polygon>
                        <polygon id="Fill-29" fill="#5573A5" points="43.3550624 44.0959344 37.6601484 38.7936118 38.5105032 37.8805796 44.2054172 43.1829022"></polygon>
                        <path d="M57.9037699,17.1225043 C57.9037699,18.9803753 56.397329,20.4868161 54.5394581,20.4868161 C52.6812753,20.4868161 51.1751462,18.9803753 51.1751462,17.1225043 C51.1751462,15.2646333 52.6812753,13.7581925 54.5394581,13.7581925 C56.397329,13.7581925 57.9037699,15.2646333 57.9037699,17.1225043" id="Fill-5" fill="#799DC9"></path>
                        <path d="M48.221886,5.36393978 C48.221886,8.32630538 45.8204989,10.7276925 42.8581333,10.7276925 C39.8957677,10.7276925 37.4943806,8.32630538 37.4943806,5.36393978 C37.4943806,2.40157419 39.8957677,0.000187096775 42.8581333,0.000187096775 C45.8204989,0.000187096775 48.221886,2.40157419 48.221886,5.36393978" id="Fill-10" fill="#799DC9"></path>
                        <path d="M7.06455591,15.1049151 C7.06455591,17.0444849 5.49231935,18.6167215 3.55274946,18.6167215 C1.6134914,18.6167215 0.0412548387,17.0444849 0.0412548387,15.1049151 C0.0412548387,13.165657 1.6134914,11.5931086 3.55274946,11.5931086 C5.49231935,11.5931086 7.06455591,13.165657 7.06455591,15.1049151" id="Fill-15" fill="#799DC9"></path>
                        <path d="M48.3287806,45.1407452 C48.3287806,46.9986161 46.8226516,48.5047452 44.9647806,48.5047452 C43.1065978,48.5047452 41.6004688,46.9986161 41.6004688,45.1407452 C41.6004688,43.2825624 43.1065978,41.7764333 44.9647806,41.7764333 C46.8226516,41.7764333 48.3287806,43.2825624 48.3287806,45.1407452" id="Fill-31" fill="#799DC9"></path>
                        <path d="M11.9262032,44.2685935 C11.9262032,47.5621204 9.25633226,50.2316796 5.9631172,50.2316796 C2.66990215,50.2316796 3.11827953e-05,47.5621204 3.11827953e-05,44.2685935 C3.11827953e-05,40.9750667 2.66990215,38.3055075 5.9631172,38.3055075 C9.25633226,38.3055075 11.9262032,40.9750667 11.9262032,44.2685935" id="Fill-35" fill="#799DC9"></path>
                    </g>
                </g>
            </g>
        </g>
    </g>
</svg>