<?xml version="1.0" encoding="UTF-8"?>
<svg width="321px" height="321px" viewBox="0 0 321 321" version="1.1" xmlns="http://www.w3.org/2000/svg" xmlns:xlink="http://www.w3.org/1999/xlink">
    <!-- Generator: sketchtool 49.2 (51160) - http://www.bohemiancoding.com/sketch -->
    <title>C26F5D51-038F-4BF8-8E6D-D025410C8C4D</title>
    <desc>Created with sketchtool.</desc>
    <defs></defs>
    <g id="TOKEN-SALE" stroke="none" stroke-width="1" fill="none" fill-rule="evenodd">
        <g id="Token-Sale" transform="translate(-918.000000, -9412.000000)">
            <g id="expenses-graph" transform="translate(362.000000, 9412.000000)">
                <g id="circle-2" transform="translate(556.000000, 0.000000)">
                    <path d="M159.967354,0.538191994 C248.035232,0.456657422 319.495434,71.7832724 319.57732,159.851171 C319.652814,241.045688 259.032689,308.122216 180.555831,318.16334 L159.999677,159.999857 L159.967354,0.538191994 Z" id="Fill-1" fill="#052E69"></path>
                    <path d="M159.967354,0.538472045 C248.035232,0.456656941 319.495434,71.783272 319.57732,159.85117 C319.659205,247.920146 248.332606,319.379286 160.264727,319.461172 L160.126815,319.461172 L159.999677,159.999857 L159.967354,0.538472045 Z" id="Stroke-3" stroke="#FFFFFF" stroke-width="1.1" stroke-linejoin="round"></path>
                    <path d="M159.967354,319.461172 C90.9809562,319.447165 29.8264781,275.073832 8.41449158,209.494303 L159.999677,159.999892 L179.800355,317.502025 C171.434097,318.808123 164.823096,319.461172 159.967354,319.461172 Z" id="Fill-5" fill="#A4D0F2"></path>
                    <path d="M180.036678,318.119971 C90.1633816,326.259483 29.8264781,275.073832 8.41449158,209.494303 L159.999677,159.999892 L180.036678,318.119971 Z" id="Stroke-7" stroke="#FFFFFF" stroke-width="1.1" stroke-linejoin="round"></path>
                    <path d="M8.36492929,209.342276 C-2.0506936,177.335811 -2.07008754,142.855542 8.30674747,110.838303 L159.999677,159.999785 L8.36492929,209.342276 Z" id="Fill-9" fill="#DD042B"></path>
                    <path d="M8.35544781,110.685845 C18.747367,78.7300202 38.9687811,50.8738586 66.1332256,31.0931178 L159.999892,160.000323 L8.35544781,110.685845 Z" id="Fill-13" fill="#FDC1B1"></path>
                    <path d="M66.2620875,31.0000269 C93.4459259,11.2462222 126.175354,0.584942761 159.778586,0.539690236 L159.999461,159.999892 L66.2620875,31.0000269 Z" id="Fill-17" fill="#EEEEEE"></path>
                    <path d="M66.2620875,31.0000269 C93.4459259,11.2462222 126.175354,0.584942761 159.778586,0.539690236 L159.999461,159.999892 L66.2620875,31.0000269 Z" id="Stroke-19" fill="#D2D1CE"></path>
                </g>
            </g>
        </g>
    </g>
</svg>