<?xml version="1.0" encoding="UTF-8"?>
<svg width="328px" height="327px" viewBox="0 0 328 327" version="1.1" xmlns="http://www.w3.org/2000/svg" xmlns:xlink="http://www.w3.org/1999/xlink">
    <!-- Generator: Sketch 49.1 (51147) - http://www.bohemiancoding.com/sketch -->
    <title>circle 2</title>
    <desc>Created with Sketch.</desc>
    <defs></defs>
    <g id="TOKEN-SALE" stroke="none" stroke-width="1" fill="none" fill-rule="evenodd">
        <g id="Token-Sale" transform="translate(-888.000000, -9413.000000)">
            <g id="Expenses" transform="translate(385.000000, 9297.000000)">
                <g id="Pie" transform="translate(0.000000, 112.000000)">
                    <g id="circle-2" transform="translate(503.000000, 4.000000)">
                        <path d="M163.466639,0.550251121 C253.461003,0.466646311 326.484397,73.3535311 326.568074,163.347915 C326.651751,253.343399 253.764882,326.365708 163.770518,326.449385 L163.629589,326.449385 L163.49967,163.499854 L163.466639,0.550251121 Z" id="Fill-1" fill="#052E69"></path>
                        <path d="M163.466639,0.550251121 C253.461003,0.466646311 326.484397,73.3535311 326.568074,163.347915 C326.651751,253.343399 253.764882,326.365708 163.770518,326.449385 L163.629589,326.449385 L163.49967,163.499854 L163.466639,0.550251121 Z" id="Stroke-3" stroke="#FFFFFF" stroke-width="1.1" stroke-linejoin="round"></path>
                        <path d="M163.466639,326.449385 C92.9711646,326.435072 30.4789323,281.091072 8.59855859,214.076991 L163.49967,163.49989 L163.466639,326.449385 Z" id="Fill-5" fill="#A4D0F2"></path>
                        <path d="M163.466639,326.449385 C92.9711646,326.435072 30.4789323,281.091072 8.59855859,214.076991 L163.49967,163.49989 L163.466639,326.449385 Z" id="Stroke-7" stroke="#FFFFFF" stroke-width="1.1" stroke-linejoin="round"></path>
                        <path d="M8.54791212,213.921638 C-2.09555253,181.215032 -2.11537071,145.980507 8.48845758,113.262891 L163.49967,163.49978 L8.54791212,213.921638 Z" id="Fill-9" fill="#DD042B"></path>
                        <path d="M8.54791212,213.921638 C-2.09555253,181.215032 -2.11537071,145.980507 8.48845758,113.262891 L163.49967,163.49978 L8.54791212,213.921638 Z" id="Stroke-11" stroke="#FFFFFF" stroke-width="1.1" stroke-linejoin="round"></path>
                        <path d="M8.53822323,113.107098 C19.1574657,80.4522394 39.8212232,51.9867242 67.5798899,31.7732798 L163.49989,163.50033 L8.53822323,113.107098 Z" id="Fill-13" fill="#D2D1CE"></path>
                        <path d="M8.53822323,113.107098 C19.1574657,80.4522394 39.8212232,51.9867242 67.5798899,31.7732798 L163.49989,163.50033 L8.53822323,113.107098 Z" id="Stroke-15" stroke="#FFFFFF" stroke-width="1.1" stroke-linejoin="round"></path>
                        <path d="M67.7115707,31.6781525 C95.4900556,11.4922333 128.935439,0.597738384 163.273742,0.55149596 L163.499449,163.49989 L67.7115707,31.6781525 Z" id="Fill-17" fill="#EEEEEE"></path>
                        <path d="M67.7115707,31.6781525 C95.4900556,11.4922333 128.935439,0.597738384 163.273742,0.55149596 L163.499449,163.49989 L67.7115707,31.6781525 Z" id="Stroke-19" stroke="#FFFFFF" stroke-width="1.1" fill="#FDC1B1" stroke-linejoin="round"></path>
                    </g>
                </g>
            </g>
        </g>
    </g>
</svg>