<?xml version="1.0" standalone="yes"?><svg xmlns="http://www.w3.org/2000/svg" xmlns:xlink="http://www.w3.org/1999/xlink" viewBox="0 0 1435 943.8" style="zoom: 1;"><defs><style>.cls-1{isolation:isolate;}.cls-2{fill:#fff;}.cls-3{fill:#636569;}.cls-4{fill:url(#linear-gradient);}.cls-5{fill:url(#linear-gradient-2);}.cls-6{fill:url(#linear-gradient-3);}.cls-7{fill:#737478;}.cls-8{fill:#6b6c71;}.cls-9{fill:#54565a;}.cls-10{fill:#1f2025;}.cls-10,.cls-11,.cls-12,.cls-13,.cls-14,.cls-15,.cls-16{opacity:0.7;mix-blend-mode:multiply;}.cls-11{fill:#2c2c31;}.cls-12{fill:#4d4b50;}.cls-13{fill:#3c3b41;}.cls-14{fill:#3f3d43;}.cls-15{fill:#434248;}.cls-16{fill:#4f4d53;}</style><linearGradient id="linear-gradient" x1="544.71" y1="269.95" x2="848.71" y2="269.95" gradientUnits="userSpaceOnUse"><stop offset="0" stop-color="#a1a2a5"></stop><stop offset="0.27" stop-color="#9d9ea1"></stop><stop offset="0.56" stop-color="#909194"></stop><stop offset="0.86" stop-color="#7a7c80"></stop><stop offset="1" stop-color="#6e7074"></stop></linearGradient><linearGradient id="linear-gradient-2" x1="542.7" y1="234.36" x2="758.7" y2="20.45" gradientUnits="userSpaceOnUse"><stop offset="0" stop-color="#949598"></stop><stop offset="0.34" stop-color="#8e8f92"></stop><stop offset="0.79" stop-color="#7d7e82"></stop><stop offset="1" stop-color="#737478"></stop></linearGradient><linearGradient id="linear-gradient-3" x1="559.35" y1="231.34" x2="674.73" y2="460.16" gradientUnits="userSpaceOnUse"><stop offset="0" stop-color="#9c9da0"></stop><stop offset="0.28" stop-color="#999a9d"></stop><stop offset="0.5" stop-color="#8f9093"></stop><stop offset="0.7" stop-color="#7e8083"></stop><stop offset="0.88" stop-color="#67696c"></stop><stop offset="1" stop-color="#54565a"></stop></linearGradient></defs><title>KLEROS-logo-symbol</title><g class="cls-1"><g id="Layer_1" data-name="Layer 1"><polygon class="cls-3" points="1016.01 276.89 848.71 107.22 804.71 432.69 1016.01 276.89"></polygon><polygon class="cls-4" points="544.71 238.72 848.71 107.22 804.71 432.69 544.71 238.72"></polygon><polygon class="cls-5" points="848.71 107.22 601.71 0 544.71 238.72 848.71 107.22"></polygon><polygon class="cls-6" points="544.71 238.72 550.53 499.08 804.71 432.69 544.71 238.72"></polygon><polygon class="cls-7" points="848.71 107.22 895.4 13.11 601.71 0 848.71 107.22"></polygon><polygon class="cls-8" points="895.4 13.11 1016.01 276.89 848.71 107.22 895.4 13.11"></polygon><polygon class="cls-8" points="1016.01 276.89 847.16 517.04 804.71 432.69 1016.01 276.89"></polygon><polygon class="cls-9" points="847.16 517.04 550.53 499.08 804.71 432.69 847.16 517.04"></polygon><polygon class="cls-9" points="601.71 0 430.71 213.61 544.71 238.72 601.71 0"></polygon><polygon class="cls-3" points="430.71 213.61 550.53 499.08 544.71 238.72 430.71 213.61"></polygon><polygon class="cls-10" points="817.6 152.05 786.78 385.37 605.17 244.9 817.6 152.05"></polygon><polygon class="cls-10" points="793 105.52 623.25 32.4 587.58 186.15 793 105.52"></polygon><polygon class="cls-11" points="749.98 420.72 565.48 288.92 569.94 467.51 749.98 420.72"></polygon><polygon class="cls-11" points="985.01 276.3 859.29 148.67 826.11 394.1 985.01 276.3"></polygon><polygon class="cls-12" points="793.23 449.43 820.62 501.83 637.63 490.12 793.23 449.43"></polygon><polygon class="cls-13" points="960.44 334.21 824.24 435.72 851.3 488.63 960.44 334.21"></polygon><polygon class="cls-13" points="896.02 49.96 968.03 204.43 869.56 104.29 896.02 49.96"></polygon><polygon class="cls-14" points="863.06 23.96 832.78 79.36 690.14 16.94 863.06 23.96"></polygon><polygon class="cls-15" points="577.47 49.09 537.33 219.25 456.35 202.09 577.47 49.09"></polygon><polygon class="cls-16" points="532.44 249.26 535.98 432.13 451.08 232.03 532.44 249.26"></polygon></g></g></svg>