<?xml version="1.0" encoding="UTF-8"?>
<svg width="37px" height="37px" viewBox="0 0 37 37" version="1.1" xmlns="http://www.w3.org/2000/svg" xmlns:xlink="http://www.w3.org/1999/xlink">
    <!-- Generator: Sketch 48 (47235) - http://www.bohemiancoding.com/sketch -->
    <title>ln</title>
    <desc>Created with Sketch.</desc>
    <defs></defs>
    <g id="Webpage-Official-1" stroke="none" stroke-width="1" fill="none" fill-rule="evenodd" transform="translate(-1097.000000, -12038.000000)">
        <g id="ln" transform="translate(1097.000000, 12038.000000)">
            <rect id="Rectangle-13-Copy-2" fill="#F2F5FA" x="0" y="0" width="37" height="37" rx="6"></rect>
            <path d="M23.169498,25.6222222 L23.169498,20.1303864 C23.169498,18.6929059 22.6294071,17.7115778 21.4417581,17.7115778 C20.5333399,17.7115778 20.0281528,18.3737992 19.7930111,19.0120126 C19.704833,19.2410891 19.7186108,19.5601958 19.7186108,19.8793025 L19.7186108,25.6222222 L16.2980349,25.6222222 C16.2980349,25.6222222 16.342124,15.8939702 16.2980349,15.0096746 L19.7186108,15.0096746 L19.7186108,16.6752314 C19.9206857,15.946988 21.0137269,14.9076405 22.7580002,14.9076405 C24.922038,14.9076405 26.6222222,16.4341508 26.6222222,19.7212496 L26.6222222,25.6222222 L23.169498,25.6222222 Z M12.8168365,13.6822309 C11.7146101,13.6822309 11,12.8709597 11,11.842616 C11,10.7942655 11.7357361,10 12.8600071,10 C13.9833595,10 14.674088,10.7922648 14.6961325,11.8396149 C14.6961325,12.8679587 13.9833595,13.6822309 12.838881,13.6822309 L12.8168365,13.6822309 Z M14.4389464,15.0096746 L14.4389464,25.6222222 L11.3940459,25.6222222 L11.3940459,15.0096746 L14.4389464,15.0096746 Z" id="LinkedIn" fill="#1A1B23"></path>
        </g>
    </g>
</svg>