<?xml version="1.0" encoding="UTF-8"?>
<svg width="30px" height="30px" viewBox="0 0 30 30" version="1.1" xmlns="http://www.w3.org/2000/svg" xmlns:xlink="http://www.w3.org/1999/xlink">
    <!-- Generator: sketchtool 49 (51002) - http://www.bohemiancoding.com/sketch -->
    <title>DD9C4EBE-F0DE-4B45-836D-23B2E9A445C7</title>
    <desc>Created with sketchtool.</desc>
    <defs></defs>
    <g id="ICO" stroke="none" stroke-width="1" fill="none" fill-rule="evenodd">
        <g id="Webpage-Official-1" transform="translate(-553.000000, -9106.000000)">
            <g id="Group-4-Copy-11" transform="translate(553.000000, 9106.000000)">
                <circle id="Path" fill="#0059AB" cx="15" cy="15" r="15"></circle>
                <path d="M19.169498,22.6222222 L19.169498,17.1303864 C19.169498,15.6929059 18.6294071,14.7115778 17.4417581,14.7115778 C16.5333399,14.7115778 16.0281528,15.3737992 15.7930111,16.0120126 C15.704833,16.2410891 15.7186108,16.5601958 15.7186108,16.8793025 L15.7186108,22.6222222 L12.2980349,22.6222222 C12.2980349,22.6222222 12.342124,12.8939702 12.2980349,12.0096746 L15.7186108,12.0096746 L15.7186108,13.6752314 C15.9206857,12.946988 17.0137269,11.9076405 18.7580002,11.9076405 C20.922038,11.9076405 22.6222222,13.4341508 22.6222222,16.7212496 L22.6222222,22.6222222 L19.169498,22.6222222 Z M8.81683652,10.6822309 C7.71461012,10.6822309 7,9.87095971 7,8.84261595 C7,7.79426551 7.73573612,7 8.86000706,7 C9.98335946,7 10.674088,7.79226484 10.6961325,8.83961495 C10.6961325,9.86795871 9.98335946,10.6822309 8.83888105,10.6822309 L8.81683652,10.6822309 Z M10.4389464,12.0096746 L10.4389464,22.6222222 L7.39404594,22.6222222 L7.39404594,12.0096746 L10.4389464,12.0096746 Z" id="LinkedIn" fill="#FFFFFF"></path>
            </g>
        </g>
    </g>
</svg>