<?xml version="1.0" encoding="UTF-8"?>
<svg width="80px" height="113px" viewBox="0 0 80 113" version="1.1" xmlns="http://www.w3.org/2000/svg" xmlns:xlink="http://www.w3.org/1999/xlink">
    <!-- Generator: Sketch 48 (47235) - http://www.bohemiancoding.com/sketch -->
    <title>selection</title>
    <desc>Created with Sketch.</desc>
    <defs></defs>
    <g id="Webpage-Official-1" stroke="none" stroke-width="1" fill="none" fill-rule="evenodd" transform="translate(-215.000000, -4031.000000)">
        <g id="selection" transform="translate(255.000000, 4087.500000) scale(-1, 1) translate(-255.000000, -4087.500000) translate(215.000000, 4031.000000)">
            <g id="Page-1">
                <path d="M0.166931818,79.8076539 C-2.05193182,95.4220853 18.1630682,111.033549 42.6222727,112.814155 C44.0995455,112.922475 45.5694318,112.974409 47.0156818,112.975893 L47.14125,112.975893 C64.9039773,112.949184 79.7830682,105.058132 79.7830682,93.890764 C79.7830682,75.9912216 76.6719318,49.2850984 44.9829545,41.5646873 C41.7093182,40.7678661 38.2820455,40.3390368 34.8429545,40.3390368 C17.6475,40.3390368 0.166931818,51.0493822 0.166931818,79.8076539" id="Fill-4" fill="#4E6B9C"></path>
                <path d="M42.6219773,112.814155 C18.1627727,111.033549 -2.05075,95.4220853 0.166636364,79.8076539 C1.80788636,68.2530044 16.4122045,69.4014954 40.8699318,71.1821014 C65.3291364,72.9641913 79.7827727,82.1372802 79.7827727,93.890764 C79.7827727,105.99295 62.3036818,114.247543 42.6219773,112.814155" id="Fill-1" fill="#4E6B9C"></path>
                <path d="M52.23075,50.9030758 C52.23075,50.9030758 40.7080227,66.1495152 30.71575,93.0871172 C19.3688182,64.883801 20.0971136,43.2449859 20.0971136,43.2449859 L38.6191591,44.0967091 L52.23075,50.9030758 Z" id="Fill-7" fill="#FFFFFF"></path>
                <path d="M24.3114773,73.563662 C25.8360227,79.5168216 27.9042045,86.0991287 30.7154545,93.0865236 C32.8767045,87.2594903 35.1103409,81.9799933 37.2848864,77.282161 C36.8756818,69.9163873 36.61125,58.5724428 37.39125,44.0397297 L36.8904545,44.0174721 C31.2517045,55.2738701 27.1419318,65.5776438 24.3114773,73.563662" id="Fill-9" fill="#799DC9"></path>
                <path d="M40.3664773,0.000890303031 C39.2053409,0.00979333333 38.0442045,0.112178182 36.8948864,0.313980202 C23.2877273,2.70147616 14.8938636,14.5202489 14.8938636,28.3956216 C14.8938636,42.2709943 24.7605682,64.8624337 38.1860227,61.5950216 C46.7881818,59.5013257 54.4138636,49.472062 59.5222727,41.4697216 C73.7159091,19.2314358 57.3122727,0.138887273 40.7269318,0.000890303031 L40.3664773,0.000890303031 Z" id="Fill-12" fill="#799DC9"></path>
            </g>
        </g>
    </g>
</svg>