<?xml version="1.0" encoding="UTF-8"?>
<svg width="326px" height="327px" viewBox="0 0 326 327" version="1.1" xmlns="http://www.w3.org/2000/svg" xmlns:xlink="http://www.w3.org/1999/xlink">
    <!-- Generator: Sketch 49.1 (51147) - http://www.bohemiancoding.com/sketch -->
    <title>Circle 1</title>
    <desc>Created with Sketch.</desc>
    <defs></defs>
    <g id="TOKEN-SALE" stroke="none" stroke-width="1" fill="none" fill-rule="evenodd">
        <g id="Token-Sale" transform="translate(-894.000000, -4836.000000)">
            <g id="Pie" transform="translate(390.000000, 4739.000000)">
                <g id="Circle-1" transform="translate(504.000000, 97.000000)">
                    <path d="M162.941785,0.0232889512 C252.978016,0.00530274471 325.982007,72.9674736 325.999996,162.990686 C326.01911,253.012773 253.045475,326.004172 163.008119,326.023282 C92.4551343,326.037896 29.898274,280.673311 8,213.615112 L162.97439,163.023286 L162.941785,0.0232889512 Z" id="Fill-1" fill="#052E69"></path>
                    <path d="M163.441885,0.523941722 L163.474463,163.386004 L8.63125047,213.935007 C30.6021267,280.526513 92.8380765,325.537817 163.008013,325.523282 C252.769408,325.50423 325.519051,252.736556 325.499996,162.990785 C325.482096,73.4108347 252.972511,0.775633464 163.441885,0.523941722 Z" id="Stroke-3" stroke="#FFFFFF"></path>
                    <path d="M8.00047486,213.023286 C-4.63403499,174.226865 -0.899081586,130.691497 15.4821024,94.1745281 L163,162.629929 L8.00047486,213.023286 Z" id="Fill-5" fill="#A4D0F2"></path>
                    <path d="M8.32187319,212.393031 L161.910873,162.458264 L31.1558358,67.7217491 C0.971505209,109.580393 -7.50444965,163.283899 8.3218774,212.393029 Z" id="Stroke-7" stroke="#FFFFFF"></path>
                    <path d="M17.5573691,93.4629073 C37.3920411,49.8039544 79.6970844,18.6795567 112.386496,8.02328563 L163,163.023286 L17.5573691,93.4629073 Z" id="Fill-9" fill="#DD042B"></path>
                    <path d="M16.4463949,94.7568585 L162.168744,162.088407 L112.066553,8.65426272 C93.5215373,14.7609224 74.5977319,24.5795908 58.5086388,37.3416572 C38.8459869,52.9383142 24.2812394,72.1361787 16.446395,94.7568585 Z" id="Stroke-11" stroke="#FFFFFF"></path>
                    <path d="M112,8.0125339 C128.076407,2.74257528 144.872053,0.0468925231 161.775865,0.0232856266 L162,163.023286 L112,8.0125339 Z" id="Fill-13" fill="#E5E4E2"></path>
                    <path d="M112.628859,8.33338129 L161.49561,159.830815 L161.276554,0.524765184 C144.75979,0.599482527 128.352636,3.2330266 112.628859,8.33338133 Z" id="Stroke-15" stroke="#FFFFFF"></path>
                </g>
            </g>
        </g>
    </g>
</svg>