<?xml version="1.0" encoding="UTF-8"?>
<svg width="67px" height="70px" viewBox="0 0 67 70" version="1.1" xmlns="http://www.w3.org/2000/svg" xmlns:xlink="http://www.w3.org/1999/xlink">
    <!-- Generator: Sketch 49.1 (51147) - http://www.bohemiancoding.com/sketch -->
    <title>reddit</title>
    <desc>Created with Sketch.</desc>
    <defs>
        <rect id="path-1" x="0" y="0.0232856266" width="55" height="56" rx="9"></rect>
        <filter x="-26.4%" y="-22.3%" width="152.7%" height="151.8%" filterUnits="objectBoundingBox" id="filter-2">
            <feOffset dx="0" dy="3" in="SourceAlpha" result="shadowOffsetOuter1"></feOffset>
            <feGaussianBlur stdDeviation="3" in="shadowOffsetOuter1" result="shadowBlurOuter1"></feGaussianBlur>
            <feColorMatrix values="0 0 0 0 0   0 0 0 0 0   0 0 0 0 0  0 0 0 0.05 0" type="matrix" in="shadowBlurOuter1" result="shadowMatrixOuter1"></feColorMatrix>
            <feOffset dx="0" dy="-1" in="SourceAlpha" result="shadowOffsetOuter2"></feOffset>
            <feGaussianBlur stdDeviation="2" in="shadowOffsetOuter2" result="shadowBlurOuter2"></feGaussianBlur>
            <feColorMatrix values="0 0 0 0 0   0 0 0 0 0   0 0 0 0 0  0 0 0 0.02 0" type="matrix" in="shadowBlurOuter2" result="shadowMatrixOuter2"></feColorMatrix>
            <feMerge>
                <feMergeNode in="shadowMatrixOuter1"></feMergeNode>
                <feMergeNode in="shadowMatrixOuter2"></feMergeNode>
            </feMerge>
        </filter>
    </defs>
    <g id="TOKEN-SALE" stroke="none" stroke-width="1" fill="none" fill-rule="evenodd">
        <g id="Token-Sale" transform="translate(-1208.000000, -11271.000000)">
            <g id="Social-block" transform="translate(330.000000, 11243.000000)">
                <g id="reddit" transform="translate(884.000000, 33.000000)">
                    <g id="Group-6-Copy-8">
                        <g id="Rectangle-13-Copy">
                            <use fill="black" fill-opacity="1" filter="url(#filter-2)" xlink:href="#path-1"></use>
                            <use fill="#FFFFFF" fill-rule="evenodd" xlink:href="#path-1"></use>
                        </g>
                    </g>
                    <path d="M32.462396,31.4768797 C31.3412103,31.4768797 30.3984126,30.575656 30.3984126,29.4644422 C30.3984126,28.3543842 31.3412103,27.4231068 32.462396,27.4231068 C33.5835816,27.4231068 34.4928593,28.3543842 34.4928593,29.4644422 C34.4928593,30.575656 33.5835816,31.4768797 32.462396,31.4768797 L32.462396,31.4768797 Z M32.9378403,35.382311 C31.8940974,36.4156936 30.2832118,36.918514 28.0142556,36.918514 C28.0096322,36.918514 28.0046234,36.9177434 27.9992294,36.9177434 C27.9938354,36.9177434 27.9888267,36.918514 27.9826621,36.918514 C25.7144765,36.918514 24.105132,36.4156936 23.0613891,35.382311 C22.7408302,35.064436 22.7408302,34.5512124 23.0613891,34.234108 C23.3811774,33.9177743 23.8986181,33.9177743 24.219177,34.234108 C24.939664,34.9476892 26.1706565,35.2952325 27.9826621,35.2952325 L27.9992294,35.2952325 L28.0142556,35.2952325 C29.8270317,35.2952325 31.0587948,34.9476892 31.7800524,34.234108 C32.1006113,33.916233 32.618052,33.9177743 32.9378403,34.234108 C33.2583993,34.5515977 33.2583993,35.0655919 32.9378403,35.382311 L32.9378403,35.382311 Z M21.5063701,29.4644422 C21.5063701,28.3543842 22.4472413,27.4231068 23.5676564,27.4231068 C24.6888421,27.4231068 25.5981198,28.3543842 25.5981198,29.4644422 C25.5981198,30.575656 24.6888421,31.4768797 23.5676564,31.4768797 C22.4472413,31.4768797 21.5063701,30.575656 21.5063701,29.4644422 L21.5063701,29.4644422 Z M37.9970461,16.6469525 C38.7564471,16.6469525 39.3740625,17.2591989 39.3740625,18.0109251 C39.3740625,18.7626513 38.7564471,19.3748977 37.9970461,19.3748977 C37.2380304,19.3748977 36.6200298,18.7626513 36.6200298,18.0109251 C36.6200298,17.2591989 37.2380304,16.6469525 37.9970461,16.6469525 L37.9970461,16.6469525 Z M39.3937121,23.6818147 C38.5329806,23.6818147 37.7427566,23.9835069 37.122059,24.4836302 C34.9239957,23.1146487 32.1333607,22.2893296 29.1439176,22.1147874 L30.7031748,17.2279894 L34.9906504,18.2278507 C35.1031542,19.7748423 36.4077366,20.9993352 37.9970461,20.9993352 C39.6595603,20.9993352 41.0115329,19.6584807 41.0115329,18.0109251 C41.0115329,16.3633695 39.6595603,15.0232856 37.9970461,15.0232856 C36.8346347,15.0232856 35.8240265,15.678686 35.3204562,16.6369346 L30.3386931,15.4748607 C29.9210418,15.3773791 29.4999229,15.6143404 29.3704665,16.0196792 L27.4340132,22.086275 C24.2118566,22.1641062 21.1831141,22.9921223 18.8232302,24.4408616 C18.2106237,23.9661683 17.4415905,23.6818147 16.6055173,23.6818147 C14.6174355,23.6818147 13,25.2846752 13,27.2547294 C13,28.4722869 13.6187712,29.5488235 14.5607983,30.1938207 C14.5222696,30.4770184 14.5014641,30.762528 14.5014641,31.0515052 C14.5014641,33.5135914 15.946291,35.8053737 18.5685554,37.5014775 C21.0837101,39.1282268 24.4114353,40.0232856 27.9391246,40.0232856 C31.4668139,40.0232856 34.7953098,39.1282268 37.3093085,37.5014775 C39.9319583,35.8053737 41.3767852,33.5135914 41.3767852,31.0515052 C41.3767852,30.7883433 41.3586767,30.5274931 41.3263125,30.2677989 C42.3307562,29.6339755 43,28.5196792 43,27.2547294 C43,25.2846752 41.3825645,23.6818147 39.3937121,23.6818147 L39.3937121,23.6818147 Z" id="Stroke-69" stroke="#1A1B23" stroke-width="1.5"></path>
                </g>
            </g>
        </g>
    </g>
    <style type="text/css">
        svg {
            cursor: pointer;
        }

        svg:hover use {
            fill: black;
        }

        svg:hover path {
            fill: #FFFFFF;
        }
    </style>
</svg>