<?xml version="1.0" encoding="UTF-8"?>
<svg width="67px" height="70px" viewBox="0 0 67 70" version="1.1" xmlns="http://www.w3.org/2000/svg" xmlns:xlink="http://www.w3.org/1999/xlink">
    <!-- Generator: Sketch 49.1 (51147) - http://www.bohemiancoding.com/sketch -->
    <title>ln</title>
    <desc>Created with Sketch.</desc>
    <defs>
        <rect id="path-1" x="0" y="0.0232856266" width="55" height="56" rx="9"></rect>
        <filter x="-26.4%" y="-22.3%" width="152.7%" height="151.8%" filterUnits="objectBoundingBox" id="filter-2">
            <feOffset dx="0" dy="3" in="SourceAlpha" result="shadowOffsetOuter1"></feOffset>
            <feGaussianBlur stdDeviation="3" in="shadowOffsetOuter1" result="shadowBlurOuter1"></feGaussianBlur>
            <feColorMatrix values="0 0 0 0 0   0 0 0 0 0   0 0 0 0 0  0 0 0 0.05 0" type="matrix" in="shadowBlurOuter1" result="shadowMatrixOuter1"></feColorMatrix>
            <feOffset dx="0" dy="-1" in="SourceAlpha" result="shadowOffsetOuter2"></feOffset>
            <feGaussianBlur stdDeviation="2" in="shadowOffsetOuter2" result="shadowBlurOuter2"></feGaussianBlur>
            <feColorMatrix values="0 0 0 0 0   0 0 0 0 0   0 0 0 0 0  0 0 0 0.02 0" type="matrix" in="shadowBlurOuter2" result="shadowMatrixOuter2"></feColorMatrix>
            <feMerge>
                <feMergeNode in="shadowMatrixOuter1"></feMergeNode>
                <feMergeNode in="shadowMatrixOuter2"></feMergeNode>
            </feMerge>
        </filter>
    </defs>
    <g id="TOKEN-SALE" stroke="none" stroke-width="1" fill="none" fill-rule="evenodd">
        <g id="Token-Sale" transform="translate(-998.000000, -11271.000000)">
            <g id="Social-block" transform="translate(330.000000, 11243.000000)">
                <g id="ln" transform="translate(674.000000, 33.000000)">
                    <g id="Rectangle-13-Copy-2">
                        <use fill="black" fill-opacity="1" filter="url(#filter-2)" xlink:href="#path-1"></use>
                        <use fill="#FFFFFF" fill-rule="evenodd" xlink:href="#path-1"></use>
                    </g>
                    <path d="M33.9166863,39.0232856 L33.9166863,30.9378659 C33.9166863,28.8215183 33.121531,27.3767466 31.3730009,27.3767466 C30.0355715,27.3767466 29.2918039,28.3517098 28.9456138,29.2913269 C28.8157926,29.6285875 28.8360771,30.0983961 28.8360771,30.5682046 L28.8360771,39.0232856 L23.8000941,39.0232856 C23.8000941,39.0232856 23.8650047,24.7007525 23.8000941,23.3988379 L28.8360771,23.3988379 L28.8360771,25.8509734 C29.1335842,24.7788085 30.7428269,23.248617 33.3108537,23.248617 C36.4968838,23.248617 39,25.4960397 39,30.3355095 L39,39.0232856 L33.9166863,39.0232856 Z M18.6748589,21.4444933 C17.0520931,21.4444933 16,20.2500898 16,18.7360986 C16,17.1926523 17.0831961,16.0232856 18.7384172,16.0232856 C20.392286,16.0232856 21.4092192,17.1897068 21.4416745,18.7316803 C21.4416745,20.2456715 20.392286,21.4444933 18.7073142,21.4444933 L18.6748589,21.4444933 Z M21.0630292,23.3988379 L21.0630292,39.0232856 L16.5801388,39.0232856 L16.5801388,23.3988379 L21.0630292,23.3988379 Z" id="LinkedIn" fill="#1A1B23"></path>
                </g>
            </g>
        </g>
    </g>
</svg>