<?xml version="1.0" encoding="UTF-8"?>
<svg width="269px" height="288px" viewBox="0 0 269 288" version="1.1" xmlns="http://www.w3.org/2000/svg" xmlns:xlink="http://www.w3.org/1999/xlink">
    <!-- Generator: Sketch 48 (47235) - http://www.bohemiancoding.com/sketch -->
    <title>ship</title>
    <desc>Created with Sketch.</desc>
    <defs></defs>
    <g id="Webpage-Official-1" stroke="none" stroke-width="1" fill="none" fill-rule="evenodd" transform="translate(-671.000000, -11266.000000)">
        <g id="ship" transform="translate(805.500000, 11410.000000) scale(-1, 1) translate(-805.500000, -11410.000000) translate(671.000000, 11266.000000)">
            <g id="Group-9">
                <path d="M21.8999718,252.610139 C21.897853,230.631262 6.07037724,231.138613 0,203.177219 C2.78622899,202.904518 4.55331263,203.04404 8.90321995,203.04404 C8.42436994,221.323481 18.4971704,228.933749 23.3110961,230.722162 C56.0021434,243.09519 71.7935994,245.619262 111.635615,245.627718 C163.764582,245.640402 225.377322,244.879375 225.377322,244.879375 C229.547131,244.925882 239.238546,242.395468 247.313313,235.463782 C258.562051,225.802969 266.054146,199.202968 252.28403,192.753266 C252.597614,189.440685 251.055123,186.781319 247.561213,186.624886 C244.452926,186.485364 242.918911,189.575979 244.23257,191.641321 C245.897951,194.260522 248.228637,193.211996 248.584596,192.571465 C248.061251,192.833596 245.395794,193.404367 244.967796,190.905662 C244.539797,188.404843 247.020918,186.975804 249.561366,188.117344 C251.347518,188.92065 251.828487,191.036728 251.54033,193.195084 C250.904688,197.995895 244.844905,199.080358 240.806462,193.710891 C237.56469,189.396292 239.600862,183.183354 245.870407,182.092548 C253.631591,180.741726 260.678737,188.504199 263.714985,194.607212 C274.296299,215.886367 268.103031,249.792226 253.000187,271.415957 L250.923757,274.23387 C250.302947,275.032949 249.671543,275.817229 249.023189,276.576142 L248.02735,276.030739 C247.53155,275.713645 247.003968,275.421918 246.442484,275.168242 L237.84861,274.432583 C237.543502,274.493888 237.234156,274.559421 236.918454,274.635523 C235.892952,274.878629 235.015767,275.307764 234.284779,275.870078 L232.161736,278.66051 C231.763401,279.618135 231.566352,280.666661 231.572708,281.719415 L221.402443,276.176603 C220.777395,275.755924 220.101496,275.379639 219.366271,275.066772 L210.973683,274.441039 C210.679169,274.50023 210.380418,274.561535 210.077428,274.635523 C209.041333,274.880743 208.157791,275.314106 207.422565,275.884876 L205.312235,278.681649 C204.916019,279.643503 204.723207,280.692029 204.731683,281.742668 L194.682189,276.267503 C193.978746,275.781292 193.209619,275.350043 192.362097,275.003353 L184.0924,274.447381 C183.806361,274.502344 183.516085,274.563649 183.219452,274.635523 C182.181238,274.882857 181.291339,275.320448 180.551876,275.895446 L178.450021,278.696447 C178.053805,279.660414 177.863112,280.70894 177.875825,281.761694 L168.305182,276.546546 C167.38562,275.861622 166.353762,275.271826 165.171469,274.840578 L157.236543,274.464292 C156.980167,274.515028 156.721673,274.572105 156.454703,274.635523 C155.391063,274.887085 154.482096,275.341587 153.736276,275.933497 L151.659847,278.75141 C151.274224,279.719605 151.089888,280.774473 151.111076,281.829341 L141.589165,276.641675 C140.601802,275.891218 139.485192,275.246459 138.194839,274.791957 L130.359497,274.472748 C130.113716,274.521369 129.865816,274.574219 129.613678,274.635523 C128.537325,274.889199 127.626238,275.350043 126.874062,275.950409 L124.810346,278.774664 C123.564489,281.911785 124.456506,285.936772 127.53513,288 C125.632443,287.260113 123.314469,286.127028 121.653326,284.569037 C118.335277,281.459397 115.063842,271.70557 102.755701,274.635523 C96.5963344,276.1005 95.7276243,284.237145 100.319075,287.74421 C98.5541105,287.008551 96.5518395,285.957911 95.0707946,284.569037 C91.7527455,281.459397 88.4813101,271.70557 76.17317,274.635523 C69.8697242,276.136437 69.1069542,284.628228 74.0713151,287.985202 C72.179222,287.245315 69.8803182,286.118573 68.2297688,284.569037 C64.9096009,281.459397 61.6381655,271.70557 49.3321442,274.635523 C43.0181044,276.138551 42.2616909,284.651482 47.2514774,288 C45.350909,287.260113 43.0350548,286.127028 41.3717926,284.569037 C38.0537435,281.459397 34.7823081,271.70557 22.4762868,274.635523 C16.2152171,276.123754 15.4206651,284.503505 20.2663729,287.911214 C18.4124182,287.169212 16.2088607,286.065724 14.6134003,284.569037 C13.3166914,283.353508 12.0284578,281.125391 10.2062852,279.036795 C16.3889591,273.369259 21.8999718,264.879582 21.8999718,252.610139 Z" id="Fill-15" fill="#D2D1CE" transform="translate(134.500000, 234.968839) scale(-1, 1) translate(-134.500000, -234.968839) "></path>
                <path d="M83.5450399,18.7648725 C66.1004358,92.944348 50.161354,160.793599 18.8054711,234.968839 C91.4892068,189.469157 165.773617,65.977887 165.978723,65.6305612 L164.206775,64.5695232 C164.005897,64.9104955 93.8151541,183.526497 22.6073376,230.165577 C49.0977618,173.379924 85.4544311,19.6840152 85.560156,19.2371509 L83.5450399,18.7648725 Z" id="Fill-1" fill="#D2D1CE"></path>
                <polygon id="Fill-3" fill="#D2D1CE" points="137.107094 5.71316541 133.185746 5.71104816 131.638298 247.111523 139.81459 247.206799"></polygon>
                <path d="M99.7507599,195.926027 C99.9219282,196.030841 159.044731,232.05743 227.6473,248.022663 L228.118541,246.022816 C158.317794,230.699043 100.997541,194.280451 100.826373,194.175637 L99.7507599,195.926027 Z" id="Fill-5" fill="#D2D1CE"></path>
                <path d="M224.030395,98.009881 C224.045218,98.2966164 228.879647,196.25818 243.310937,243.943343 L245.288754,243.34226 C230.171369,195.90985 226.300438,110.054893 226.097151,97.9036827 L224.030395,98.009881 Z" id="Fill-7" fill="#D2D1CE"></path>
                <path d="M59.6869301,13.5978768 C65.2669758,34.0813444 79.5169671,81.0900136 104.115368,129.000497 C128.747678,176.970255 164.137417,226.398582 211.231901,250.468138 L211.26369,250.470255 C211.32091,250.082856 211.503168,249.735678 211.765957,249.468944 C160.265505,221.146465 130.067985,175.014207 105.957017,128.058461 C81.4603404,80.3469693 67.2548538,33.4801348 61.689643,13.0538244 L59.6869301,13.5978768 Z" id="Fill-9" fill="#D2D1CE"></path>
                <path d="M225.665653,97.3241033 C190.539268,68.9550127 155.032361,38.5550347 135.253686,9.49350014 C109.20063,10.0529442 88.4410541,8.59416746 57.4623556,1.63172805 L57.2340426,3.89694863 C57.3503131,3.91805973 94.1573364,11.6214986 134.270671,11.6594986 C155.871622,43.3810312 224.221785,98.5527691 224.422616,98.7195467 L225.665653,97.3241033 Z" id="Fill-11" fill="#D2D1CE"></path>
                <path d="M165.978723,63.7439752 C155.965986,52.6622287 141.015691,36.0861886 134.125979,21.0028179 C118.407103,23.3741507 101.39667,22.2223605 87.0159311,18.7648725 L86.668693,20.4269228 C86.7300949,20.4375091 108.349902,25.1293605 133.539485,23.5562352 C139.96339,36.251335 156.292051,55.3426817 163.963049,64.4532578 L165.978723,63.7439752 Z" id="Fill-13" fill="#D2D1CE"></path>
                <path d="M36.1054498,256.077224 C35.7173388,257.539166 36.2256263,259.156194 37.2855438,260.152879 C39.0665204,261.821602 41.7438956,261.157835 42.3861505,258.736429 C42.7762316,257.274486 42.265974,255.657459 41.2060565,254.660774 C39.4152293,252.981712 36.7477047,253.659954 36.1054498,256.077224" id="Fill-27" fill="#FFFEFA"></path>
                <polygon id="Fill-29" fill="#D2D1CE" points="57.2464239 0 54.781155 4.26934983 225.572447 102.804844 228.037716 98.5376091"></polygon>
                <path d="M239.56535,242.018264 C231.745834,239.687793 199.600118,227.023024 186.317974,217.01983 L184.784195,218.749642 C198.221202,227.712826 238.6786,243.896648 238.795278,243.943343 L239.56535,242.018264 Z" id="Fill-32" fill="#D2D1CE"></path>
                <path d="M224.848024,99.2042996 C224.848024,99.2042996 163.075053,153.561431 192.726164,221.915014 C66.2471335,220.11032 -26.5130628,123.604781 57.6472297,4.07932011 C62.8029304,15.7239443 68.0010473,23.1123746 84.9633239,18.9113182 C89.1688995,30.0491012 94.6957428,38.743867 112.222156,34.462225 C116.63133,48.9464324 121.763702,52.7594054 138.121546,49.0503455 C139.30284,61.7701517 146.424536,69.0186175 165.753642,65.0126632 C166.915848,75.7411559 174.478674,89.3007493 195.580781,82.0459215 C198.88501,101.490387 214.740221,100.987787 224.848024,99.2042996" id="Fill-82" fill="#A4D0F2"></path>
                <path d="M194.595745,82.4022663 C184.81935,97.1693253 171.315041,127.467403 166.824029,158.269143 C163.725773,179.492822 165.074745,201.167259 174.951217,218.651558 C162.549854,204.474928 163.450558,173.533516 165.702319,158.089263 C168.746366,137.227459 180.015594,99.9521689 194.595745,82.4022663" id="Fill-84" fill="#D2D1CE" opacity="0.233865489"></path>
                <path d="M165.161094,66.0849858 C155.452673,79.959376 142.742048,113.298825 139.880642,147.587274 C137.89217,171.434608 140.495812,196.182437 153.002823,215.388102 C138.561492,198.158467 137.006238,168.482161 138.75644,147.492374 C140.617113,125.190858 149.160177,86.3429874 165.161094,66.0849858" id="Fill-86" fill="#D2D1CE" opacity="0.233865489"></path>
                <path d="M136.544073,50.5835694 C126.434008,70.243497 114.598812,103.967086 112.666751,138.80358 C111.319587,163.160563 115.234386,188.827221 128.342842,210.492918 C113.492364,190.862611 110.217361,160.611035 111.427275,138.735875 C112.708981,115.622977 121.258617,75.1309736 136.544073,50.5835694" id="Fill-88" fill="#D2D1CE" opacity="0.233865489"></path>
                <path d="M111.197568,35.082153 C99.3417138,52.6387235 86.6999519,86.9856905 84.8255417,123.006421 C83.472268,149.041561 87.9943876,176.189025 103.128359,199.070822 C87.3009399,180.3175 82.3018123,147.743497 83.5920453,122.945211 C84.9011906,97.7712249 93.8067403,57.3370796 111.197568,35.082153" id="Fill-90" fill="#D2D1CE" opacity="0.233865489"></path>
                <path d="M85.0334347,18.7648725 C73.0676942,33.0281644 58.5396831,65.4422275 55.6362002,101.660968 C53.5952848,127.121729 57.8678553,155.603727 72.8833124,181.121813 C57.1896695,159.954052 52.3936244,126.510263 54.3921531,101.56118 C56.4330685,76.1110339 64.9633741,42.0281784 85.0334347,18.7648725" id="Fill-92" fill="#D2D1CE" opacity="0.233865489"></path>
            </g>
        </g>
    </g>
</svg>