<?xml version="1.0" encoding="UTF-8"?>
<svg width="336px" height="260px" viewBox="0 0 336 260" version="1.1" xmlns="http://www.w3.org/2000/svg" xmlns:xlink="http://www.w3.org/1999/xlink">
    <!-- Generator: Sketch 48 (47235) - http://www.bohemiancoding.com/sketch -->
    <title>PNK illustration</title>
    <desc>Created with Sketch.</desc>
    <defs>
        <filter x="-56.2%" y="-52.7%" width="212.5%" height="209.6%" filterUnits="objectBoundingBox" id="filter-1">
            <feOffset dx="0" dy="2" in="SourceAlpha" result="shadowOffsetOuter1"></feOffset>
            <feGaussianBlur stdDeviation="12.5" in="shadowOffsetOuter1" result="shadowBlurOuter1"></feGaussianBlur>
            <feColorMatrix values="0 0 0 0 0.188235294   0 0 0 0 0.192156863   0 0 0 0 0.2  0 0 0 0.107818161 0" type="matrix" in="shadowBlurOuter1" result="shadowMatrixOuter1"></feColorMatrix>
            <feMerge>
                <feMergeNode in="shadowMatrixOuter1"></feMergeNode>
                <feMergeNode in="SourceGraphic"></feMergeNode>
            </feMerge>
        </filter>
        <filter x="-38.0%" y="-36.1%" width="176.0%" height="176.0%" filterUnits="objectBoundingBox" id="filter-2">
            <feOffset dx="0" dy="2" in="SourceAlpha" result="shadowOffsetOuter1"></feOffset>
            <feGaussianBlur stdDeviation="12.5" in="shadowOffsetOuter1" result="shadowBlurOuter1"></feGaussianBlur>
            <feColorMatrix values="0 0 0 0 0.188235294   0 0 0 0 0.192156863   0 0 0 0 0.2  0 0 0 0.107818161 0" type="matrix" in="shadowBlurOuter1" result="shadowMatrixOuter1"></feColorMatrix>
            <feMerge>
                <feMergeNode in="shadowMatrixOuter1"></feMergeNode>
                <feMergeNode in="SourceGraphic"></feMergeNode>
            </feMerge>
        </filter>
        <filter x="-44.9%" y="-42.1%" width="189.8%" height="188.8%" filterUnits="objectBoundingBox" id="filter-3">
            <feOffset dx="0" dy="2" in="SourceAlpha" result="shadowOffsetOuter1"></feOffset>
            <feGaussianBlur stdDeviation="12.5" in="shadowOffsetOuter1" result="shadowBlurOuter1"></feGaussianBlur>
            <feColorMatrix values="0 0 0 0 0.188235294   0 0 0 0 0.192156863   0 0 0 0 0.2  0 0 0 0.107818161 0" type="matrix" in="shadowBlurOuter1" result="shadowMatrixOuter1"></feColorMatrix>
            <feMerge>
                <feMergeNode in="shadowMatrixOuter1"></feMergeNode>
                <feMergeNode in="SourceGraphic"></feMergeNode>
            </feMerge>
        </filter>
        <filter x="-54.9%" y="-51.4%" width="209.7%" height="208.2%" filterUnits="objectBoundingBox" id="filter-4">
            <feOffset dx="0" dy="2" in="SourceAlpha" result="shadowOffsetOuter1"></feOffset>
            <feGaussianBlur stdDeviation="12.5" in="shadowOffsetOuter1" result="shadowBlurOuter1"></feGaussianBlur>
            <feColorMatrix values="0 0 0 0 0.188235294   0 0 0 0 0.192156863   0 0 0 0 0.2  0 0 0 0.107818161 0" type="matrix" in="shadowBlurOuter1" result="shadowMatrixOuter1"></feColorMatrix>
            <feMerge>
                <feMergeNode in="shadowMatrixOuter1"></feMergeNode>
                <feMergeNode in="SourceGraphic"></feMergeNode>
            </feMerge>
        </filter>
    </defs>
    <g id="Webpage-Official-1" stroke="none" stroke-width="1" fill="none" fill-rule="evenodd" transform="translate(-640.000000, -6386.000000)">
        <g id="PNK-illustration" transform="translate(650.000000, 6401.000000)">
            <g id="Group-8" filter="url(#filter-1)" transform="translate(228.432789, 79.437292)">
                <g id="money-on-hand-copy-7" stroke="#47525D" stroke-width="2.4">
                    <path d="M72,36.0320285 C72,55.936121 55.8864,72.0640569 36,72.0640569 C16.1136,72.0640569 0,55.936121 0,36.0320285 C0,16.1351423 16.1136,0 36,0 C55.8864,0 72,16.1351423 72,36.0320285 L72,36.0320285 Z" id="Stroke-7" fill="#FFFFFF"></path>
                    <path d="M56.9302326,36.0320285 C56.9302326,47.6041753 47.5618605,56.9808822 36,56.9808822 C24.4381395,56.9808822 15.0697674,47.6041753 15.0697674,36.0320285 C15.0697674,24.4640714 24.4381395,15.0831747 36,15.0831747 C47.5618605,15.0831747 56.9302326,24.4640714 56.9302326,36.0320285 L56.9302326,36.0320285 Z" id="Stroke-5" fill="#D2D1CE"></path>
                </g>
                <path d="M32.3063145,40.634163 C32.3063145,41.0431608 32.3349987,41.3847124 32.3923681,41.6588279 C32.4497375,41.9329435 32.5600615,42.1548432 32.7233435,42.3245338 C32.8866255,42.4942244 33.1205125,42.6160517 33.4250114,42.6900193 C33.7295103,42.763987 34.1288832,42.8009703 34.6231423,42.8009703 L34.6231423,44.2498595 L25.2631579,44.2498595 L25.2631579,42.8009703 C25.7485909,42.8009703 26.1435509,42.768338 26.4480498,42.7030724 C26.7525487,42.6378068 26.9908486,42.522506 27.1629567,42.3571664 C27.3350648,42.1918269 27.4542147,41.9699272 27.5204101,41.6914606 C27.5866056,41.412994 27.6197028,41.060565 27.6197028,40.634163 L27.6197028,30.1656122 C27.6197028,29.7479123 27.5910185,29.4020098 27.5336492,29.1278943 C27.4762798,28.8537787 27.3615428,28.631879 27.1894347,28.4621884 C27.0173267,28.2924978 26.7768203,28.172846 26.4679084,28.1032294 C26.1589964,28.0336127 25.757417,27.9988049 25.2631579,27.9988049 L25.2631579,26.5499157 L46.7368421,26.5499157 L46.7368421,27.9988049 C46.2602351,27.9988049 45.8696881,28.0292617 45.5651892,28.0901763 C45.2606903,28.1510909 45.0179774,28.2598653 44.8370433,28.4165027 C44.6561092,28.5731402 44.5325462,28.7928644 44.4663508,29.075682 C44.4001554,29.3584997 44.3670582,29.7218061 44.3670582,30.1656122 L44.3670582,40.634163 C44.3670582,41.060565 44.3979489,41.412994 44.4597313,41.6914606 C44.5215137,41.9699272 44.6384572,42.1918269 44.8105653,42.3571664 C44.9826733,42.522506 45.2231797,42.6378068 45.5320916,42.7030724 C45.8410036,42.768338 46.242583,42.8009703 46.7368421,42.8009703 L46.7368421,44.2498595 L37.4033357,44.2498595 L37.4033357,42.8009703 C37.8711166,42.8009703 38.2528378,42.7661625 38.5485106,42.6965459 C38.8441834,42.6269292 39.0758639,42.5072774 39.243559,42.3375868 C39.411254,42.1678963 39.525991,41.9459965 39.5877734,41.671881 C39.6495558,41.3977654 39.6804465,41.0518629 39.6804465,40.634163 L39.6804465,30.1656122 C39.6804465,29.7653165 39.6517622,29.4259404 39.5943929,29.1474738 C39.5370235,28.8690073 39.4266995,28.644932 39.2634175,28.4752415 C39.1001355,28.3055509 38.868455,28.1837236 38.5683691,28.1097559 C38.2682833,28.0357882 37.8799427,27.9988049 37.4033357,27.9988049 L34.6231423,27.9988049 C34.1553614,27.9988049 33.7714338,28.0314372 33.4713479,28.0967028 C33.171262,28.1619684 32.9351686,28.2772693 32.7630605,28.4426088 C32.5909525,28.6079484 32.4718025,28.8298481 32.4056071,29.1083147 C32.3394117,29.3867813 32.3063145,29.7392102 32.3063145,30.1656122 L32.3063145,40.634163 Z" id="Π" fill="#1A1B23"></path>
            </g>
            <g id="Group-8-Copy-2" filter="url(#filter-2)" transform="translate(165.241616, 60.975509) rotate(11.000000) translate(-165.241616, -60.975509) translate(113.241616, 8.975509)">
                <g id="money-on-hand-copy-6" stroke="#47525D">
                    <path d="M103.542143,51.8171312 C103.542143,80.4409145 80.3694115,103.634262 51.7710716,103.634262 C23.1727316,103.634262 0,80.4409145 0,51.8171312 C0,23.2037114 23.1727316,0 51.7710716,0 C80.3694115,0 103.542143,23.2037114 103.542143,51.8171312 L103.542143,51.8171312 Z" id="Stroke-7" stroke-width="2" fill="#FFFFFF"></path>
                    <path d="M81.8705318,51.8171312 C81.8705318,68.4588657 68.3980134,81.9433703 51.7710716,81.9433703 C35.1441297,81.9433703 21.6716114,68.4588657 21.6716114,51.8171312 C21.6716114,35.181422 35.1441297,21.6908921 51.7710716,21.6908921 C68.3980134,21.6908921 81.8705318,35.181422 81.8705318,51.8171312 L81.8705318,51.8171312 Z" id="Stroke-5" stroke-width="2.4" fill="#D2D1CE"></path>
                </g>
                <path d="M46.4592367,58.4353934 C46.4592367,59.0235671 46.500487,59.5147474 46.5829891,59.9089489 C46.6654911,60.3031505 46.8241465,60.6222612 47.0589599,60.8662908 C47.2937734,61.1103203 47.6301228,61.2855183 48.0680182,61.3918902 C48.5059136,61.498262 49.080246,61.5514471 49.7910327,61.5514471 L49.7910327,63.6350734 L36.3305765,63.6350734 L36.3305765,61.5514471 C37.0286706,61.5514471 37.5966569,61.5045191 38.0345523,61.4106616 C38.4724476,61.3168041 38.8151432,61.1509916 39.0626493,60.9132193 C39.3101554,60.6754469 39.4815032,60.3563362 39.5766979,59.9558775 C39.6718925,59.5554188 39.7194891,59.0485958 39.7194891,58.4353934 L39.7194891,43.3807241 C39.7194891,42.780036 39.6782387,42.2825987 39.5957367,41.8883972 C39.5132347,41.4941956 39.3482331,41.1750849 39.100727,40.9310554 C38.8532209,40.6870258 38.5073522,40.5149563 38.0631105,40.4148416 C37.6188688,40.314727 37.0413633,40.2646704 36.3305765,40.2646704 L36.3305765,38.1810441 L67.2115666,38.1810441 L67.2115666,40.2646704 C66.5261651,40.2646704 65.9645251,40.3084699 65.5266297,40.3960702 C65.0887343,40.4836706 64.7396925,40.6400974 64.4794938,40.8653554 C64.2192951,41.0906134 64.0416011,41.4065957 63.9464064,41.8133115 C63.8512118,42.2200274 63.8036152,42.742493 63.8036152,43.3807241 L63.8036152,58.4353934 C63.8036152,59.0485958 63.8480387,59.5554188 63.936887,59.9558775 C64.0257353,60.3563362 64.19391,60.6754469 64.4414161,60.9132193 C64.6889222,61.1509916 65.0347909,61.3168041 65.4790326,61.4106616 C65.9232743,61.5045191 66.5007799,61.5514471 67.2115666,61.5514471 L67.2115666,63.6350734 L53.7891881,63.6350734 L53.7891881,61.5514471 C54.4618969,61.5514471 55.0108445,61.5013906 55.4360473,61.4012759 C55.86125,61.3011612 56.1944263,61.1290917 56.4355861,60.8850622 C56.6767459,60.6410326 56.8417475,60.3219219 56.9305958,59.9277203 C57.0194441,59.5335188 57.0638676,59.0360815 57.0638676,58.4353934 L57.0638676,43.3807241 C57.0638676,42.8050647 57.0226172,42.317013 56.9401152,41.9165543 C56.8576132,41.5160956 56.6989578,41.1938563 56.4641443,40.9498268 C56.2293309,40.7057972 55.8961546,40.5305992 55.4646055,40.4242273 C55.0330564,40.3178555 54.4745895,40.2646704 53.7891881,40.2646704 L49.7910327,40.2646704 C49.1183239,40.2646704 48.5662032,40.3115984 48.1346541,40.4054559 C47.703105,40.4993134 47.3635825,40.6651259 47.1160765,40.9028982 C46.8685704,41.1406706 46.6972226,41.4597813 46.6020279,41.8602401 C46.5068333,42.2606988 46.4592367,42.7675217 46.4592367,43.3807241 L46.4592367,58.4353934 Z" id="Π" fill="#1A1B23"></path>
            </g>
            <g id="Group-8-Copy-4" filter="url(#filter-3)" transform="translate(108.344854, 173.572953) rotate(11.000000) translate(-108.344854, -173.572953) translate(64.344854, 129.072953)">
                <g id="money-on-hand-copy-6" stroke="#47525D">
                    <path d="M88,44.0391459 C88,68.3663701 68.3056,88.0782918 44,88.0782918 C19.6944,88.0782918 0,68.3663701 0,44.0391459 C0,19.7207295 19.6944,0 44,0 C68.3056,0 88,19.7207295 88,44.0391459 L88,44.0391459 Z" id="Stroke-7" stroke-width="2" fill="#FFFFFF"></path>
                    <path d="M69.5813953,44.0391459 C69.5813953,58.1828809 58.1311628,69.6433005 44,69.6433005 C29.8688372,69.6433005 18.4186047,58.1828809 18.4186047,44.0391459 C18.4186047,29.9005317 29.8688372,18.4349913 44,18.4349913 C58.1311628,18.4349913 69.5813953,29.9005317 69.5813953,44.0391459 L69.5813953,44.0391459 Z" id="Stroke-5" stroke-width="2.4" fill="#D2D1CE"></path>
                </g>
                <path d="M39.4854955,49.663977 C39.4854955,50.1638632 39.520554,50.5813151 39.5906721,50.9163452 C39.6607902,51.2513754 39.7956307,51.5225861 39.9951976,51.7299857 C40.1947645,51.9373853 40.4806263,52.0862854 40.8527917,52.1766903 C41.224957,52.2670953 41.7130795,52.3122971 42.3171739,52.3122971 L42.3171739,54.0831616 L30.877193,54.0831616 L30.877193,52.3122971 C31.4705,52.3122971 31.9532289,52.2724131 32.3253943,52.192644 C32.6975596,52.112875 32.988815,51.9719517 33.1991693,51.7698701 C33.4095236,51.5677884 33.5551513,51.2965776 33.6360568,50.9562296 C33.7169624,50.6158815 33.7574145,50.185135 33.7574145,49.663977 L33.7574145,36.8690816 C33.7574145,36.3585595 33.722356,35.9357898 33.6522379,35.6007596 C33.5821198,35.2657295 33.4418857,34.9945188 33.2315314,34.7871192 C33.021177,34.5797196 32.7272248,34.4334785 32.3496658,34.3483914 C31.9721068,34.2633044 31.4812874,34.2207616 30.877193,34.2207616 L30.877193,32.449897 L57.122807,32.449897 L57.122807,34.2207616 C56.5402874,34.2207616 56.0629521,34.2579866 55.6907868,34.3324377 C55.3186215,34.4068888 55.0219724,34.5398353 54.8008307,34.7312811 C54.579689,34.9227269 54.4286676,35.1912787 54.3477621,35.5369447 C54.2668566,35.8826107 54.2264045,36.3266519 54.2264045,36.8690816 L54.2264045,49.663977 C54.2264045,50.185135 54.2641598,50.6158815 54.3396716,50.9562296 C54.4151834,51.2965776 54.5581143,51.5677884 54.7684686,51.7698701 C54.978823,51.9719517 55.2727752,52.112875 55.6503342,52.192644 C56.0278932,52.2724131 56.5187126,52.3122971 57.122807,52.3122971 L57.122807,54.0831616 L45.7151881,54.0831616 L45.7151881,52.3122971 C46.2869203,52.3122971 46.7534684,52.2697542 47.1148463,52.1846672 C47.4762242,52.0995802 47.7593892,51.9533391 47.9643498,51.7459395 C48.1693104,51.5385399 48.3095445,51.2673291 48.3850564,50.932299 C48.4605682,50.5972689 48.4983235,50.1744991 48.4983235,49.663977 L48.4983235,36.8690816 C48.4983235,36.3798313 48.463265,35.9650383 48.3931469,35.6246902 C48.3230288,35.2843422 48.1881883,35.0104725 47.9886214,34.8030729 C47.7890545,34.5956733 47.5058894,34.4467733 47.1391178,34.3563683 C46.7723462,34.2659634 46.2977077,34.2207616 45.7151881,34.2207616 L42.3171739,34.2207616 C41.7454417,34.2207616 41.2761968,34.2606455 40.9094252,34.3404146 C40.5426536,34.4201837 40.254095,34.5611069 40.0437407,34.7631886 C39.8333864,34.9652702 39.6877586,35.236481 39.6068531,35.576829 C39.5259476,35.9171771 39.4854955,36.3479236 39.4854955,36.8690816 L39.4854955,49.663977 Z" id="Π" fill="#1A1B23"></path>
            </g>
            <g id="Group-8-Copy-3" filter="url(#filter-4)" transform="translate(51.927293, 70.192433) rotate(-39.000000) translate(-51.927293, -70.192433) translate(15.927293, 33.692433)">
                <g id="money-on-hand-copy-6" stroke="#47525D">
                    <path d="M72,36.0320285 C72,55.936121 55.8864,72.0640569 36,72.0640569 C16.1136,72.0640569 0,55.936121 0,36.0320285 C0,16.1351423 16.1136,0 36,0 C55.8864,0 72,16.1351423 72,36.0320285 L72,36.0320285 Z" id="Stroke-7" stroke-width="2" fill="#FFFFFF"></path>
                    <path d="M56.9302326,36.0320285 C56.9302326,47.6041753 47.5618605,56.9808822 36,56.9808822 C24.4381395,56.9808822 15.0697674,47.6041753 15.0697674,36.0320285 C15.0697674,24.4640714 24.4381395,15.0831747 36,15.0831747 C47.5618605,15.0831747 56.9302326,24.4640714 56.9302326,36.0320285 L56.9302326,36.0320285 Z" id="Stroke-5" stroke-width="2.4" fill="#D2D1CE"></path>
                </g>
                <path d="M32.3063145,40.634163 C32.3063145,41.0431608 32.3349987,41.3847124 32.3923681,41.6588279 C32.4497375,41.9329435 32.5600615,42.1548432 32.7233435,42.3245338 C32.8866255,42.4942244 33.1205125,42.6160517 33.4250114,42.6900193 C33.7295103,42.763987 34.1288832,42.8009703 34.6231423,42.8009703 L34.6231423,44.2498595 L25.2631579,44.2498595 L25.2631579,42.8009703 C25.7485909,42.8009703 26.1435509,42.768338 26.4480498,42.7030724 C26.7525487,42.6378068 26.9908486,42.522506 27.1629567,42.3571664 C27.3350648,42.1918269 27.4542147,41.9699272 27.5204101,41.6914606 C27.5866056,41.412994 27.6197028,41.060565 27.6197028,40.634163 L27.6197028,30.1656122 C27.6197028,29.7479123 27.5910185,29.4020098 27.5336492,29.1278943 C27.4762798,28.8537787 27.3615428,28.631879 27.1894347,28.4621884 C27.0173267,28.2924978 26.7768203,28.172846 26.4679084,28.1032294 C26.1589964,28.0336127 25.757417,27.9988049 25.2631579,27.9988049 L25.2631579,26.5499157 L46.7368421,26.5499157 L46.7368421,27.9988049 C46.2602351,27.9988049 45.8696881,28.0292617 45.5651892,28.0901763 C45.2606903,28.1510909 45.0179774,28.2598653 44.8370433,28.4165027 C44.6561092,28.5731402 44.5325462,28.7928644 44.4663508,29.075682 C44.4001554,29.3584997 44.3670582,29.7218061 44.3670582,30.1656122 L44.3670582,40.634163 C44.3670582,41.060565 44.3979489,41.412994 44.4597313,41.6914606 C44.5215137,41.9699272 44.6384572,42.1918269 44.8105653,42.3571664 C44.9826733,42.522506 45.2231797,42.6378068 45.5320916,42.7030724 C45.8410036,42.768338 46.242583,42.8009703 46.7368421,42.8009703 L46.7368421,44.2498595 L37.4033357,44.2498595 L37.4033357,42.8009703 C37.8711166,42.8009703 38.2528378,42.7661625 38.5485106,42.6965459 C38.8441834,42.6269292 39.0758639,42.5072774 39.243559,42.3375868 C39.411254,42.1678963 39.525991,41.9459965 39.5877734,41.671881 C39.6495558,41.3977654 39.6804465,41.0518629 39.6804465,40.634163 L39.6804465,30.1656122 C39.6804465,29.7653165 39.6517622,29.4259404 39.5943929,29.1474738 C39.5370235,28.8690073 39.4266995,28.644932 39.2634175,28.4752415 C39.1001355,28.3055509 38.868455,28.1837236 38.5683691,28.1097559 C38.2682833,28.0357882 37.8799427,27.9988049 37.4033357,27.9988049 L34.6231423,27.9988049 C34.1553614,27.9988049 33.7714338,28.0314372 33.4713479,28.0967028 C33.171262,28.1619684 32.9351686,28.2772693 32.7630605,28.4426088 C32.5909525,28.6079484 32.4718025,28.8298481 32.4056071,29.1083147 C32.3394117,29.3867813 32.3063145,29.7392102 32.3063145,30.1656122 L32.3063145,40.634163 Z" id="Π" fill="#1A1B23"></path>
            </g>
        </g>
    </g>
</svg>