<?xml version="1.0" encoding="UTF-8"?>
<svg width="57px" height="53px" viewBox="0 0 57 53" version="1.1" xmlns="http://www.w3.org/2000/svg" xmlns:xlink="http://www.w3.org/1999/xlink">
    <!-- Generator: Sketch 48 (47235) - http://www.bohemiancoding.com/sketch -->
    <title>features/cureated lists</title>
    <desc>Created with Sketch.</desc>
    <defs></defs>
    <g id="Webpage-Official-1" stroke="none" stroke-width="1" fill="none" fill-rule="evenodd" transform="translate(-606.000000, -5648.000000)">
        <g id="Use-Cases-bg" transform="translate(-4.000000, 5172.000000)">
            <g id="feature" transform="translate(609.000000, 443.000000)">
                <g id="features/icon1" transform="translate(0.000000, 30.000000)">
                    <g id="features/cureated-lists">
                        <rect id="features/icon1" fill-opacity="0" fill="#4E6B9C" x="0" y="0" width="59" height="59" rx="3"></rect>
                        <g id="Group-19" transform="translate(1.000000, 3.000000)">
                            <path d="M0.583619859,34.7626376 L27.286791,20.2543227 C27.579388,20.0953495 27.9319213,20.0924518 28.2270919,20.2465938 L56.0429083,34.772379 C56.5324604,35.0280296 56.7220751,35.6321357 56.4664245,36.1216878 C56.3772275,36.2924935 56.240581,36.4338911 56.0729223,36.5288717 L28.8288478,51.9629483 C28.5230702,52.1361747 28.1488048,52.1361747 27.8430272,51.9629483 L0.568114244,36.5114013 C0.0875822423,36.2391745 -0.0812824739,35.6289429 0.190944344,35.1484109 C0.283169118,34.9856167 0.419215908,34.8519613 0.583619859,34.7626376 Z" id="Path-8-Copy-2" fill="#4E6B9C"></path>
                            <path d="M0.583619859,24.7626376 L27.286791,10.2543227 C27.579388,10.0953495 27.9319213,10.0924518 28.2270919,10.2465938 L56.0429083,24.772379 C56.5324604,25.0280296 56.7220751,25.6321357 56.4664245,26.1216878 C56.3772275,26.2924935 56.240581,26.4338911 56.0729223,26.5288717 L28.8288478,41.9629483 C28.5230702,42.1361747 28.1488048,42.1361747 27.8430272,41.9629483 L0.568114244,26.5114013 C0.0875822423,26.2391745 -0.0812824739,25.6289429 0.190944344,25.1484109 C0.283169118,24.9856167 0.419215908,24.8519613 0.583619859,24.7626376 Z" id="Path-8-Copy" fill="#5573A5"></path>
                            <path d="M0.583619859,14.7626376 L27.286791,0.254322713 C27.579388,0.0953494976 27.9319213,0.0924518135 28.2270919,0.246593811 L56.0429083,14.772379 C56.5324604,15.0280296 56.7220751,15.6321357 56.4664245,16.1216878 C56.3772275,16.2924935 56.240581,16.4338911 56.0729223,16.5288717 L28.8288478,31.9629483 C28.5230702,32.1361747 28.1488048,32.1361747 27.8430272,31.9629483 L0.568114244,16.5114013 C0.0875822423,16.2391745 -0.0812824739,15.6289429 0.190944344,15.1484109 C0.283169118,14.9856167 0.419215908,14.8519613 0.583619859,14.7626376 Z" id="Path-8" fill="#799DC9"></path>
                        </g>
                    </g>
                </g>
            </g>
        </g>
    </g>
</svg>