<?xml version="1.0" encoding="UTF-8"?>
<svg width="59px" height="59px" viewBox="0 0 59 59" version="1.1" xmlns="http://www.w3.org/2000/svg" xmlns:xlink="http://www.w3.org/1999/xlink">
    <!-- Generator: Sketch 48 (47235) - http://www.bohemiancoding.com/sketch -->
    <title>features/escrow</title>
    <desc>Created with Sketch.</desc>
    <defs></defs>
    <g id="Webpage-Official-1" stroke="none" stroke-width="1" fill="none" fill-rule="evenodd" transform="translate(-215.000000, -5445.000000)">
        <g id="Use-Cases-bg" transform="translate(-4.000000, 5172.000000)">
            <g id="feature" transform="translate(219.000000, 243.000000)">
                <g id="features/icon1" transform="translate(0.000000, 30.000000)">
                    <g id="features/escrow">
                        <rect id="features/icon1-copy" fill="#4E6B9C" x="0" y="0" width="59" height="59" rx="3"></rect>
                        <path d="M0,29 L59,29 L59,56 C59,57.6568542 57.6568542,59 56,59 L3,59 C1.34314575,59 2.02906125e-16,57.6568542 0,56 L0,29 Z" id="features/icon1-copy" fill="#5573A5"></path>
                        <g id="Page-1" transform="translate(24.000000, 19.000000)" fill="#799DC9">
                            <path d="M12,6.07835553 C12,2.72188761 9.3144,0 6,0 C2.6856,0 0,2.72188761 0,6.07835553 C0,8.50969774 1.4124,10.600652 3.4476,11.5731889 L0.9996,22 L11.0004,22 L8.5524,11.5731889 C10.5876,10.600652 12,8.50969774 12,6.07835553" id="Fill-9"></path>
                        </g>
                    </g>
                </g>
            </g>
        </g>
    </g>
</svg>