<?xml version="1.0" encoding="UTF-8"?>
<svg width="1600px" height="604px" viewBox="0 0 1600 604" version="1.1" xmlns="http://www.w3.org/2000/svg" xmlns:xlink="http://www.w3.org/1999/xlink">
    <!-- Generator: Sketch 48 (47235) - http://www.bohemiancoding.com/sketch -->
    <title>bg footer</title>
    <desc>Created with Sketch.</desc>
    <defs>
        <polygon id="path-1" points="0 0 1598.0025 0 1600 604 1.99750312 604"></polygon>
        <linearGradient x1="-1.11022302e-14%" y1="50%" x2="100%" y2="50%" id="linearGradient-3">
            <stop stop-color="#FFFFFF" offset="0%"></stop>
            <stop stop-color="#FFFFFF" stop-opacity="0" offset="100%"></stop>
        </linearGradient>
        <linearGradient x1="100%" y1="50%" x2="-2.22044605e-14%" y2="50%" id="linearGradient-4">
            <stop stop-color="#FFFFFF" offset="0%"></stop>
            <stop stop-color="#FFFFFF" stop-opacity="0" offset="100%"></stop>
        </linearGradient>
    </defs>
    <g id="Webpage-Official-1" stroke="none" stroke-width="1" fill="none" fill-rule="evenodd" transform="translate(0.000000, -11538.000000)">
        <g id="bg-footer" transform="translate(0.000000, 11538.000000)">
            <mask id="mask-2" fill="white">
                <use xlink:href="#path-1"></use>
            </mask>
            <use id="Mask" fill="#1A1B23" xlink:href="#path-1"></use>
            <path d="M1217.68336,75.0239756 L1407.72237,517.889227 C1409.22628,521.393934 1412.5927,523.738089 1416.40148,523.932793 L1887.63357,548.022066 C1891.02042,548.195201 1894.26423,546.640037 1896.25014,543.891057 L2163.78018,173.565454 C2165.90808,170.619925 2166.2707,166.751909 2164.72734,163.462205 L1974.37412,-242.279556 C1972.79526,-245.644927 1969.47993,-247.856774 1965.7663,-248.022335 L1499.4508,-268.811543 C1496.31226,-268.951465 1493.29041,-267.60831 1491.29127,-265.184784 L1219.15886,64.7172647 C1216.77625,67.6056689 1216.20684,71.5831035 1217.68336,75.0239756 Z" id="bg" fill="url(#linearGradient-3)" opacity="0.03" mask="url(#mask-2)" transform="translate(1691.273539, 139.606828) rotate(34.000000) translate(-1691.273539, -139.606828) "></path>
            <path d="M-130.049276,368.911252 L37.2455114,758.773579 C38.7494251,762.278287 42.1158474,764.622442 45.9246295,764.817146 L460.805524,786.025759 C464.192375,786.198894 467.436178,784.64373 469.422092,781.89475 L704.958229,455.856362 C707.086133,452.910834 707.448754,449.042818 705.905394,445.753114 L538.35726,88.6208582 C536.7784,85.2554872 533.463073,83.0436398 529.749434,82.878079 L119.137932,64.572258 C115.999389,64.4323359 112.977539,65.7754915 110.978401,68.1990173 L-128.573781,358.604541 C-130.956393,361.492946 -131.525797,365.47038 -130.049276,368.911252 Z" id="bg" fill="url(#linearGradient-4)" opacity="0.03" mask="url(#mask-2)" transform="translate(287.996246, 425.300575) rotate(34.000000) translate(-287.996246, -425.300575) "></path>
        </g>
    </g>
</svg>