<?xml version="1.0" encoding="UTF-8"?>
<svg width="37px" height="37px" viewBox="0 0 37 37" version="1.1" xmlns="http://www.w3.org/2000/svg" xmlns:xlink="http://www.w3.org/1999/xlink">
    <!-- Generator: Sketch 48 (47235) - http://www.bohemiancoding.com/sketch -->
    <title>medium</title>
    <desc>Created with Sketch.</desc>
    <defs></defs>
    <g id="Webpage-Official-1" stroke="none" stroke-width="1" fill="none" fill-rule="evenodd" transform="translate(-1142.000000, -12038.000000)">
        <g id="medium" transform="translate(1142.000000, 12038.000000)">
            <rect id="Rectangle-13-Copy" fill="#F2F5FA" x="0" y="0" width="37" height="37" rx="6"></rect>
            <path d="M9.39387259,10.7255273 C9.34354397,10.7006287 9.29556532,10.6888889 9.25222135,10.6888889 C9.19046924,10.6888889 9.13824759,10.7128845 9.1014966,10.7566828 C9.06552894,10.7995136 9.04444444,10.8614376 9.04444444,10.9389072 L9.04444444,23.4156961 C9.04444444,23.6280439 9.2016969,23.8794168 9.39387259,23.974367 L14.8297551,26.6601283 C14.9052807,26.6974762 14.977216,26.7151504 15.0422319,26.7151504 C15.2253994,26.7151504 15.3538647,26.5751117 15.3538647,26.3400584 L15.3538647,13.7561925 C15.3538647,13.7035571 15.3237719,13.6553724 15.2761197,13.6318284 L9.39387259,10.7255273 Z" id="Fill-51" fill="#1A1B23"></path>
            <path d="M27.3265995,26.622101 C27.614863,26.7645263 27.850709,26.6204884 27.850709,26.3019667 L27.850709,14.6888889 L22.0444444,24.0123256 L27.3265995,26.622101 Z" id="Fill-50" fill="#1A1B23"></path>
            <polygon id="Fill-48" fill="#1A1B23" points="16.0444444 21.083061 21.796268 23.9249225 16.0444444 14.6888889"></polygon>
            <path d="M22.0171415,10.7094097 C21.9899209,10.6959283 21.9602852,10.6896714 21.9306494,10.6888974 C21.8519252,10.6882523 21.7793371,10.7244392 21.7400403,10.7874598 L18.0444444,16.7217815 L22.1698245,23.3462336 L28.0704798,13.871212 C28.1142154,13.8009024 28.0876476,13.7087259 28.0129707,13.6718295 L22.0171415,10.7094097 Z" id="Fill-47" fill="#1A1B23"></path>
        </g>
    </g>
</svg>