<?xml version="1.0" encoding="UTF-8"?>
<svg width="37px" height="37px" viewBox="0 0 37 37" version="1.1" xmlns="http://www.w3.org/2000/svg" xmlns:xlink="http://www.w3.org/1999/xlink">
    <!-- Generator: Sketch 48 (47235) - http://www.bohemiancoding.com/sketch -->
    <title>reddit</title>
    <desc>Created with Sketch.</desc>
    <defs></defs>
    <g id="Webpage-Official-1" stroke="none" stroke-width="1" fill="none" fill-rule="evenodd" transform="translate(-1232.000000, -12038.000000)">
        <g id="reddit" transform="translate(1232.000000, 12038.000000)">
            <g id="Group-6-Copy-8" fill="#F2F5FA">
                <rect id="Rectangle-13-Copy" x="0" y="0" width="37" height="37" rx="6"></rect>
            </g>
            <path d="M21.9749306,20.9686119 C21.2274735,20.9686119 20.5989417,20.3678208 20.5989417,19.627042 C20.5989417,18.8870338 21.2274735,18.2662077 21.9749306,18.2662077 C22.7223878,18.2662077 23.3285729,18.8870338 23.3285729,19.627042 C23.3285729,20.3678208 22.7223878,20.9686119 21.9749306,20.9686119 L21.9749306,20.9686119 Z M22.2918936,23.5721258 C21.5960649,24.2610192 20.5221412,24.596219 19.0095038,24.596219 C19.0064215,24.596219 19.0030823,24.5957053 18.9994863,24.5957053 C18.9958903,24.5957053 18.9925511,24.596219 18.9884414,24.596219 C17.4763177,24.596219 16.4034214,24.2610192 15.7075927,23.5721258 C15.4938868,23.3602178 15.4938868,23.0180828 15.7075927,22.8066886 C15.920785,22.5958081 16.2657454,22.5958081 16.4794514,22.8066886 C16.959776,23.2823898 17.7804377,23.5140758 18.9884414,23.5140758 L18.9994863,23.5140758 L19.0095038,23.5140758 C20.2180212,23.5140758 21.0391965,23.2823898 21.5200349,22.8066886 C21.7337409,22.5947806 22.0787013,22.5958081 22.2918936,22.8066886 C22.5055995,23.0183397 22.5055995,23.3609884 22.2918936,23.5721258 L22.2918936,23.5721258 Z M14.6709134,19.627042 C14.6709134,18.8870338 15.2981609,18.2662077 16.0451043,18.2662077 C16.7925614,18.2662077 17.3987465,18.8870338 17.3987465,19.627042 C17.3987465,20.3678208 16.7925614,20.9686119 16.0451043,20.9686119 C15.2981609,20.9686119 14.6709134,20.3678208 14.6709134,19.627042 L14.6709134,19.627042 Z M25.6646974,11.0824001 C26.1709648,11.0824001 26.5827083,11.4905476 26.5827083,11.9916778 C26.5827083,12.492808 26.1709648,12.9009555 25.6646974,12.9009555 C25.1586869,12.9009555 24.7466865,12.492808 24.7466865,11.9916778 C24.7466865,11.4905476 25.1586869,11.0824001 25.6646974,11.0824001 L25.6646974,11.0824001 Z M26.5958081,15.7721155 C26.0219871,15.7721155 25.4951711,15.9732354 25.0813726,16.3066372 C23.6159971,15.3940203 21.7555738,14.8438303 19.7626117,14.7274735 L20.8021165,11.4697421 L23.6604336,12.1362889 C23.7354361,13.1675742 24.6051577,13.9838693 25.6646974,13.9838693 C26.7730402,13.9838693 27.6743553,13.0900031 27.6743553,11.9916778 C27.6743553,10.8933525 26.7730402,10 25.6646974,10 C24.8897565,10 24.2160177,10.4369156 23.8803041,11.0757218 L20.5591287,10.3010377 C20.2806945,10.2360526 19.9999486,10.3940203 19.9136443,10.6642351 L18.6226754,14.708466 C16.474571,14.7603514 14.4554094,15.3123395 12.8821535,16.278126 C12.4737491,15.9616768 11.9610603,15.7721155 11.4036782,15.7721155 C10.0782904,15.7721155 9,16.8406452 9,18.1539608 C9,18.9656324 9.41251413,19.6832939 10.0405322,20.1132744 C10.0148464,20.3020651 10.0009761,20.492397 10.0009761,20.6850406 C10.0009761,22.3263639 10.964194,23.854156 12.7123703,24.9848454 C14.38914,26.0693003 16.6076235,26.6659817 18.9594164,26.6659817 C21.3112093,26.6659817 23.5302065,26.0693003 25.2062057,24.9848454 C26.9546389,23.854156 27.9178568,22.3263639 27.9178568,20.6850406 C27.9178568,20.5096065 27.9057844,20.3357136 27.8842084,20.1625912 C28.5538375,19.7400596 29,18.9972259 29,18.1539608 C29,16.8406452 27.9217096,15.7721155 26.5958081,15.7721155 L26.5958081,15.7721155 Z" id="Stroke-69" stroke="#1A1B23"></path>
        </g>
    </g>
</svg>