<?xml version="1.0" encoding="UTF-8"?>
<svg width="57px" height="50px" viewBox="0 0 57 50" version="1.1" xmlns="http://www.w3.org/2000/svg" xmlns:xlink="http://www.w3.org/1999/xlink">
    <!-- Generator: Sketch 48 (47235) - http://www.bohemiancoding.com/sketch -->
    <title>features/like</title>
    <desc>Created with Sketch.</desc>
    <defs></defs>
    <g id="Webpage-Official-1" stroke="none" stroke-width="1" fill="none" fill-rule="evenodd" transform="translate(-606.000000, -5450.000000)">
        <g id="Use-Cases-bg" transform="translate(-4.000000, 5172.000000)">
            <g id="feature-copy" transform="translate(609.000000, 243.000000)">
                <g id="feature">
                    <g id="features/icon1" transform="translate(0.000000, 30.000000)">
                        <g id="features/like">
                            <g id="Page-1" transform="translate(1.000000, 5.000000)">
                                <path d="M56.8197,20.9786 C56.6102556,18.8841556 54.6898111,17.3664889 52.5824778,17.3664889 L35.8945889,17.3664889 C35.0052556,17.3664889 34.2834778,16.6447111 34.2834778,15.7553778 L34.2834778,5.00926667 C34.2834778,2.49271111 32.2438111,0.449822222 29.7272556,0.449822222 C28.0517,0.449822222 26.4985889,1.3166 25.6157,2.74082222 L16.5612556,17.3664889 L16.5612556,49.5919333 L47.7491444,49.5919333 C49.8564778,49.5919333 51.7769222,48.0742667 51.9863667,45.9798222 C52.2280333,43.5663778 50.3398111,41.5363778 47.9779222,41.5363778 L49.3602556,41.5363778 C51.4675889,41.5363778 53.3880333,40.0187111 53.5974778,37.9242667 C53.8391444,35.5108222 51.9509222,33.4776 49.5890333,33.4776 L50.9713667,33.4808222 C53.0787,33.4808222 54.9991444,31.9631556 55.2085889,29.8687111 C55.4502556,27.4552667 53.5620333,25.4220444 51.2001444,25.4220444 L52.8112556,25.4220444 C55.1731444,25.4220444 57.0613667,23.3920444 56.8197,20.9786 Z" id="Stroke-1" fill="#799DC9"></path>
                                <path d="M3.67333333,49.5916111 L13.34,49.5916111 C15.1186667,49.5916111 16.5622222,48.1480556 16.5622222,46.3693889 L16.5622222,20.5916111 C16.5622222,18.8097222 15.1186667,17.3693889 13.34,17.3693889 L3.67333333,17.3693889 C1.89466667,17.3693889 0.451111111,18.8097222 0.451111111,20.5916111 L0.451111111,46.3693889 C0.451111111,48.1480556 1.89466667,49.5916111 3.67333333,49.5916111" id="Fill-3" fill="#5573A5"></path>
                            </g>
                        </g>
                    </g>
                </g>
            </g>
        </g>
    </g>
</svg>