<?xml version="1.0" encoding="UTF-8"?>
<svg width="37px" height="37px" viewBox="0 0 37 37" version="1.1" xmlns="http://www.w3.org/2000/svg" xmlns:xlink="http://www.w3.org/1999/xlink">
    <!-- Generator: Sketch 48 (47235) - http://www.bohemiancoding.com/sketch -->
    <title>telegram</title>
    <desc>Created with Sketch.</desc>
    <defs></defs>
    <g id="Webpage-Official-1" stroke="none" stroke-width="1" fill="none" fill-rule="evenodd" transform="translate(-1187.000000, -12038.000000)">
        <g id="telegram" transform="translate(1187.000000, 12038.000000)">
            <g id="Group-6" fill="#F2F5FA">
                <rect id="Rectangle-13-Copy" x="0" y="0" width="37" height="37" rx="6"></rect>
            </g>
            <path d="M13.4898931,19.5664383 L23.7258211,13.0296168 C23.9097068,12.9124824 24.098972,13.170398 23.9409985,13.3223349 L15.4934674,21.4643925 C15.1965377,21.7509829 15.0049995,22.1345175 14.9507506,22.550812 L14.6629887,24.7619887 C14.624878,25.0572207 14.2249057,25.086524 14.1463356,24.8007978 L13.0396116,20.7686567 C12.912854,20.3087608 13.0975732,19.8175192 13.4898931,19.5664383 M6.40624837,18.5899273 L11.7059153,20.5654249 L13.7572113,27.1540153 C13.8884648,27.5759908 14.4051222,27.7319632 14.7480526,27.4519479 L17.7021765,25.0467414 C18.0118336,24.7947506 18.4528975,24.7821932 18.7765079,25.0168027 L24.1046949,28.8802786 C24.4714687,29.1465879 24.9912694,28.9458222 25.0832695,28.5030964 L28.9864513,9.75187307 C29.0868847,9.26825903 28.6110908,8.86481344 28.1500168,9.04291449 L6.40003836,17.4227758 C5.86329432,17.629514 5.867971,18.3884725 6.40624837,18.5899273" id="Telegram" fill="#1A1B23"></path>
        </g>
    </g>
</svg>