<?xml version="1.0" encoding="UTF-8"?>
<svg width="37px" height="37px" viewBox="0 0 37 37" version="1.1" xmlns="http://www.w3.org/2000/svg" xmlns:xlink="http://www.w3.org/1999/xlink">
    <!-- Generator: Sketch 48 (47235) - http://www.bohemiancoding.com/sketch -->
    <title>tw</title>
    <desc>Created with Sketch.</desc>
    <defs></defs>
    <g id="Webpage-Official-1" stroke="none" stroke-width="1" fill="none" fill-rule="evenodd" transform="translate(-1007.000000, -12038.000000)">
        <g id="tw" transform="translate(1007.000000, 12038.000000)">
            <rect id="Rectangle-13" fill="#F2F5FA" x="0" y="0" width="37" height="37" rx="6"></rect>
            <path d="M24.3246249,14.8240305 C24.9167991,14.4666191 25.3732666,13.8873662 25.595332,13.2218415 C25.0401687,13.5546039 24.4233206,13.7887699 23.7694616,13.9243398 C23.2513092,13.3574114 22.4987545,13 21.6721781,13 C20.093047,13 18.8100029,14.3064002 18.8100029,15.9085891 C18.8100029,16.1304306 18.8346769,16.3522722 18.8840247,16.5741137 C16.5029911,16.4508684 14.3810336,15.2923626 12.97462,13.5299548 C12.7278807,13.9613133 12.5798372,14.4666191 12.5798372,14.9965739 C12.5798372,16.0071853 13.0856526,16.8945515 13.8628812,17.4121818 C13.3940767,17.3998572 12.9499461,17.2642874 12.5551633,17.0547704 C12.5551633,18.4967404 13.5421202,19.6675708 14.8621751,19.9387104 C14.6154359,20.0003331 14.3686967,20.0373067 14.1096205,20.0373067 C13.924566,20.0373067 13.7395116,20.0126576 13.5667942,19.9880086 C13.924566,21.1341899 14.9855448,21.9722579 16.2439149,21.996907 C15.2569579,22.7733524 14.0232617,23.2416845 12.6785329,23.2416845 C12.4564676,23.2416845 12.2220653,23.22936 12,23.2047109 C13.2707071,24.0304544 14.7758164,24.5111111 16.3919584,24.5111111 C21.6721781,24.5111111 24.5590272,20.0866048 24.5590272,16.2413514 C24.5590272,16.1181061 24.5466902,15.9948608 24.5466902,15.8716155 C25.1018535,15.464906 25.595332,14.9472758 25.9777778,14.3680228 C25.4596254,14.6021889 24.9044621,14.7500833 24.3246249,14.8240305 Z" id="Twitter-icon" fill="#1A1B23"></path>
        </g>
    </g>
</svg>