<?xml version="1.0" encoding="UTF-8"?>
<svg width="1600px" height="850px" viewBox="0 0 1600 850" version="1.1" xmlns="http://www.w3.org/2000/svg" xmlns:xlink="http://www.w3.org/1999/xlink">
    <!-- Generator: Sketch 48 (47235) - http://www.bohemiancoding.com/sketch -->
    <title>security bg copy</title>
    <desc>Created with Sketch.</desc>
    <defs>
        <polygon id="path-1" points="0 0 1600 0 1600 850 1385 779.812826 0 696.237105"></polygon>
        <linearGradient x1="43.6501642%" y1="45.2862299%" x2="102.143797%" y2="100%" id="linearGradient-3">
            <stop stop-color="#F2F5FA" offset="0%"></stop>
            <stop stop-color="#E7ECF4" offset="100%"></stop>
        </linearGradient>
    </defs>
    <g id="Webpage-Official-1" stroke="none" stroke-width="1" fill="none" fill-rule="evenodd" transform="translate(0.000000, -1558.000000)">
        <g id="security-bg-copy" transform="translate(0.000000, 1558.000000)">
            <mask id="mask-2" fill="white">
                <use xlink:href="#path-1"></use>
            </mask>
            <use id="use-cases-bg" fill="#F2F5FA" xlink:href="#path-1"></use>
            <polygon id="Path-4" fill="url(#linearGradient-3)" mask="url(#mask-2)" points="823 612.143043 1600 850 1600 310"></polygon>
            <polygon id="Path-3" fill="url(#linearGradient-3)" mask="url(#mask-2)" points="-4 710.88957 259.462823 443 1385 785"></polygon>
            <g id="world-decentralized-copy" mask="url(#mask-2)" stroke="#799DC9" stroke-linecap="square">
                <g transform="translate(800.000000, 129.286885) scale(-1, -1) rotate(-360.000000) translate(-800.000000, -129.286885) translate(200.000000, -87.213115)">
                    <path d="M709.836066,315.300546 L907.943929,271.580231" id="Line-67"></path>
                    <path d="M908.135565,272.124833 L1037.18561,241.873735" id="Line-68"></path>
                    <path d="M920.766499,248.555285 L944.335242,368.68866" id="Line-69"></path>
                    <path d="M919.276465,247.618164 L951.024684,176.504932" id="Line-72"></path>
                    <path d="M810.090976,157.935871 L919.826171,246.87514" id="Line-73"></path>
                    <path d="M680.103044,194.139781 L810.641359,158.677155" id="Line-74"></path>
                    <path d="M814.754098,75.9562842 L810.099519,157.000407" id="Line-75"></path>
                    <path d="M810.382514,159.016393 L814.754098,290.163934" id="Line-76"></path>
                    <path d="M677.133136,193.589302 L814.754098,291.256831" id="Line-77"></path>
                    <path d="M814.754098,291.256831 L947.310228,368.691878" id="Line-78"></path>
                    <path d="M908.67604,273.066626 L902.946081,379.087627" id="Line-79"></path>
                    <path d="M814.754098,291.256831 L820.299377,380.574022" id="Line-80"></path>
                    <path d="M798.360656,31.147541 L814.357197,75.2948481" id="Line-82"></path>
                    <path d="M814.754098,75.9562842 L965.87875,121.346743" id="Line-83"></path>
                    <path d="M884.369695,141.405314 L939.879559,108.909017" id="Line-84"></path>
                    <path d="M940.074095,109.656399 L1037.18629,240.932219" id="Line-85"></path>
                    <path d="M951.226293,176.314048 L963.641205,122.280496" id="Line-86"></path>
                    <path d="M754.644809,47.5409836 L884.174472,142.144373" id="Line-87"></path>
                    <path d="M1038.12085,242.611781 L1062.43977,382.05989" id="Line-89"></path>
                    <path d="M1081.75348,258.953628 L1035.14814,315.209512" id="Line-90"></path>
                    <path d="M1035.70041,315.208921 L920.762352,248.555405" id="Line-91"></path>
                    <path d="M953.445567,176.503824 L1034.95641,313.726024" id="Line-92"></path>
                    <path d="M1087.68421,228.50383 L1081.95425,258.754928" id="Line-93"></path>
                    <path d="M1087.69579,229.987124 L1037.37633,243.158957" id="Line-94"></path>
                    <path d="M963.843064,122.281432 L1082.49517,259.503632" id="Line-95"></path>
                    <path d="M660.655738,83.6065574 L813.661202,75.9562842" id="Line-96"></path>
                    <path d="M755.125127,47.8056632 L797.269393,31.670994" id="Line-97"></path>
                    <path d="M635.53762,15.3223355 L754.189723,47.0705543" id="Line-98"></path>
                    <path d="M662.276849,84.4034014 L810.641013,157.740433" id="Line-99"></path>
                    <path d="M810.833276,157.940443 L953.251406,177.792726" id="Line-100"></path>
                    <path d="M814.754098,75.9562842 L953.252496,177.796984" id="Line-101"></path>
                    <path d="M953.444,177.248308 L1083.23819,258.759149" id="Line-102"></path>
                    <path d="M1040.34819,245.584195 L1144.88849,365.71757" id="Line-103"></path>
                    <path d="M1084.17147,259.695378 L1123.3484,381.317287" id="Line-104"></path>
                    <path d="M1084.17359,259.69717 L1199.45355,371.038251" id="Line-105"></path>
                    <path d="M1087.14187,229.985092 L1157.9235,371.038251" id="Line-106"></path>
                    <path d="M499.611167,57.4658322 L635.345209,16.068645" id="Line-107"></path>
                    <path d="M508.533885,196.363847 L514.263844,144.568729" id="Line-109"></path>
                    <path d="M710.355784,316.145054 L697.940872,384.289412" id="Line-110"></path>
                    <path d="M709.815098,314.661886 L792.070892,385.029807" id="Line-111"></path>
                    <path d="M709.836066,315.300546 L475.098428,379.089861" id="Line-112"></path>
                    <path d="M908.134527,273.065776 L1020.10288,379.831249" id="Line-113"></path>
                    <path d="M1034.95671,313.91982 L902.93674,390.97128" id="Line-114"></path>
                    <path d="M1035.15251,313.919113 L1048.32434,384.287034" id="Line-115"></path>
                    <path d="M1036.63675,314.658237 L1107.00467,383.54791" id="Line-116"></path>
                    <path d="M241.126559,244.096055 L283.270824,385.03225" id="Line-117"></path>
                    <path d="M298.128559,299.80577 L200.271786,381.316611" id="Line-119"></path>
                    <path d="M243.160808,242.612828 L143.823663,388.001022" id="Line-120"></path>
                    <path d="M159.969291,267.123215 L79.2034536,385.031038" id="Line-121"></path>
                    <path d="M116.393443,282.513661 L0,388.470016" id="Line-122"></path>
                    <polyline id="Path-2" points="5.19940748 389.955561 61.2003733 301.956869 134.360745 199.040046 206.560307 143.404192 284.148442 81.5999837 394.696372 40.4764 460.860733 17.6787167 601.781945 0 797.984429 30.8819941 966.195563 121.352416 1088.66411 230.331558 1194.28364 370.961407"></polyline>
                    <path d="M62.1188572,301.839287 L157.741802,267.124446" id="Line"></path>
                    <path d="M159.016393,267.213115 L204.540977,144.565641" id="Line-2"></path>
                    <path d="M205.473479,143.602683 L333.779354,138.650866" id="Line-3"></path>
                    <path d="M333.03309,138.622632 L299.066305,297.384824" id="Line-4"></path>
                    <path d="M299.061242,298.868901 L509.075236,195.817582" id="Line-5"></path>
                    <path d="M509.07527,195.624711 L332.786885,140.437158" id="Line-6"></path>
                    <path d="M158.677904,266.93758 L240.933699,244.832671" id="Line-7"></path>
                    <path d="M240.204373,244.646823 L232.941708,155.707553" id="Line-8"></path>
                    <path d="M134.167621,198.596821 L233.504765,155.70566" id="Line-9"></path>
                    <path d="M232.956061,156.258701 L361.261937,73.2580008" id="Line-10"></path>
                    <path d="M374.31694,71.5846995 L364.237063,137.688799" id="Line-11"></path>
                    <path d="M332.49198,139.914611 L321.857923,98.9071038" id="Line-12"></path>
                    <path d="M333.972985,139.172776 L555.868467,57.6619354" id="Line-13"></path>
                    <path d="M498.864579,57.6609729 L535.074738,269.901699" id="Line-14"></path>
                    <path d="M535.814662,269.896516 L385.245902,239.89071" id="Line-15"></path>
                    <path d="M385.030657,240.189874 L364.426793,137.138555" id="Line-16"></path>
                    <path d="M116.393443,282.513661 L234.248221,154.222063" id="Line-17"></path>
                    <path d="M234.441008,155.512115 L284.014195,82.1750839" id="Line-18"></path>
                    <path d="M283.463756,81.9800757 L499.418456,57.6611539" id="Line-19"></path>
                    <path d="M460.655738,19.1256831 L407.103825,112.021858" id="Line-20"></path>
                    <path d="M392.896175,42.0765027 L554.38417,57.4764433" id="Line-21"></path>
                    <path d="M554.5782,57.4690269 L599.690261,0.467227861" id="Line-22"></path>
                    <path d="M599.138866,0.458771249 L635.349025,15.1394512" id="Line-23"></path>
                    <path d="M636.280929,15.3221921 L660.599851,83.46655" id="Line-24"></path>
                    <path d="M556.803885,58.2147945 L754.932346,48.0016727" id="Line-25"></path>
                    <path d="M661.343143,83.6575661 L513.722948,144.373591" id="Line-26"></path>
                    <path d="M513.723701,144.563785 L678.426158,194.883246" id="Line-27"></path>
                    <path d="M678.425582,194.331293 L536.007451,269.158745" id="Line-28"></path>
                    <path d="M509.266595,195.624505 L725.221296,142.336981" id="Line-29"></path>
                    <path d="M556.061652,58.4025509 L724.478134,141.403251" id="Line-31"></path>
                    <path d="M723.933086,142.888101 L754.644809,47.5409836" id="Line-32"></path>
                    <path d="M725.219611,143.823793 L709.836066,315.300546" id="Line-33"></path>
                    <path d="M682.513661,322.95082 L678.646472,195.073874" id="Line-34"></path>
                    <path d="M678.424943,193.394668 L661.536642,83.6594736" id="Line-35"></path>
                    <path d="M241.125961,243.904717 L366.461942,136.394801" id="Line-36"></path>
                    <path d="M234.441908,154.780681 L332.786885,139.344262" id="Line-37"></path>
                    <path d="M159.016393,267.213115 L331.693989,140.437158" id="Line-38"></path>
                    <path d="M330.260108,139.919769 L364.974949,137.134372" id="Line-39"></path>
                    <path d="M365.16785,137.124056 L513.532014,144.386721" id="Line-40"></path>
                    <path d="M365.170011,136.94652 L500.159948,57.6598743" id="Line-41"></path>
                    <path d="M332.486353,139.91633 L391.803279,42.0765027" id="Line-42"></path>
                    <path d="M206.214972,143.630316 L390.710383,42.0765027" id="Line-43"></path>
                    <path d="M62.1179675,301.09698 L205.280132,144.566519" id="Line-44"></path>
                    <path d="M116.393443,281.420765 L133.982011,198.045586" id="Line-45"></path>
                    <path d="M159.421261,267.125021 L298.86937,298.12485" id="Line-47"></path>
                    <path d="M158.507651,267.122761 L154.942343,374.632677" id="Line-48"></path>
                    <path d="M116.393443,282.513661 L139.169855,382.803723" id="Line-49"></path>
                    <path d="M116.393443,282.513661 L68.7993026,378.345052" id="Line-50"></path>
                    <path d="M299.609666,298.320426 L286.437834,376.117002" id="Line-51"></path>
                    <path d="M299.805971,298.319134 L416.96949,380.574929" id="Line-52"></path>
                    <path d="M385.245902,240.983607 L416.968449,383.546153" id="Line-53"></path>
                    <path d="M385.245902,239.89071 L258.210326,379.832843" id="Line-54"></path>
                    <path d="M241.124903,243.183716 L385.775085,239.618408" id="Line-55"></path>
                    <path d="M386.707965,239.449463 L513.532302,145.30669" id="Line-56"></path>
                    <path d="M508.3274,195.074826 L474.360614,380.573859" id="Line-57"></path>
                    <path d="M508.743169,195.081967 L710.366052,315.209793" id="Line-58"></path>
                    <path d="M682.513661,322.95082 L660.796125,381.319257" id="Line-60"></path>
                    <path d="M535.263351,269.349351 L681.420765,297.814208" id="Line-61"></path>
                    <path d="M535.273695,269.350778 L547.688607,388.002882" id="Line-62"></path>
                    <path d="M536.556246,269.352298 L386.709968,386.515817" id="Line-63"></path>
                    <path d="M725.41349,142.336433 L908.686005,272.130621" id="Line-64"></path>
                    <path d="M907.207473,269.901617 L885.102564,140.851575" id="Line-65"></path>
                    <path d="M723.928402,142.61232 L884.916827,142.61232" id="Line-66"></path>
                </g>
            </g>
        </g>
    </g>
</svg>